<svg xmlns="http://www.w3.org/2000/svg" width="151" height="35" viewBox="0 0 151 35" fill="none">
<path d="M13.7237 3.68746C6.70582 6.06078 2.36251 10.3328 -0.449219 15.6671C0.922354 8.00465 5.49426 3.37102 12.8093 1.31414C12.9922 1.26893 13.1522 1.22373 13.3351 1.20112C16.0325 0.72646 16.8555 1.51757 15.3696 2.78334C14.8895 3.19019 14.318 3.48403 13.7237 3.68746Z" fill="url(#paint0_linear)"/>
<path d="M2.20408 27.399C-0.104735 24.0989 -0.607645 20.5276 1.47257 16.5495C2.84415 14.1084 4.55861 12.0515 6.66169 10.4241C8.19328 9.22609 9.93061 8.34457 11.7822 7.68908C17.8857 5.51919 20.4231 3.28148 18.4344 0.953369C20.7432 1.11159 22.5262 1.78968 22.3433 4.25342C21.3375 8.29936 17.7943 10.8535 12.8566 12.6392C11.4393 13.159 10.0678 13.7919 8.78763 14.6282C3.89569 17.77 1.56401 21.9742 2.20408 27.399Z" fill="url(#paint1_linear)"/>
<path d="M18.3863 20.0077C11.3685 23.127 6.91086 25.4777 8.03098 32.4394C2.63613 28.3935 4.48775 20.2338 11.1399 16.7529C22.341 11.622 26.7758 6.76234 24.2384 2.7616C29.3589 7.05618 29.3818 11.509 24.307 16.1426C22.5696 17.77 20.558 19.0584 18.3863 20.0077Z" fill="url(#paint2_linear)"/>
<path d="M24.9014 25.4777C16.9234 31.4901 12.7172 30.4052 14.0888 34.2477C5.88223 32.4394 11.1856 26.8791 19.095 22.8331C21.1981 21.7482 23.2326 20.6632 25.1071 19.2392C30.8449 14.9221 30.502 9.40691 29.0389 6.87537C34.7996 12.5487 31.8735 19.9851 24.9014 25.4777Z" fill="url(#paint3_linear)"/>
<path d="M19.2103 31.3771C26.2282 29.0038 30.5715 24.7318 33.3832 19.3975C32.0116 27.0374 27.4397 31.6936 20.1247 33.7505C19.9418 33.7957 19.7818 33.8409 19.5989 33.8635C16.9015 34.3381 16.0785 33.547 17.5644 32.2813C18.0444 31.897 18.6159 31.5806 19.2103 31.3771Z" fill="url(#paint4_linear)"/>
<path d="M50.6168 9.47372C52.3136 10.3154 52.5373 11.889 52.3695 12.8222C52.0525 14.7801 50.71 15.9694 47.9505 15.9694H42.8789V3.76483H47.8759C50.2439 3.76483 51.9779 5.15546 51.922 7.47927C51.8847 8.0465 51.5305 9.01628 50.6168 9.47372ZM47.8759 8.54054C49.4049 8.54054 49.4608 6.36311 47.8759 6.36311H46.0487V8.54054H47.8759ZM47.8759 13.2614C49.7778 13.2614 49.7405 10.7546 47.8759 10.7546H46.0487V13.2614H47.8759Z" fill="white"/>
<path d="M56.9588 11.889C56.9588 13.8469 60.5015 13.8469 60.5202 11.889V3.76483H63.7086V11.889C63.6899 17.6162 53.7704 17.6162 53.7891 11.889V3.76483H56.9588V11.889Z" fill="white"/>
<path d="M66.95 12.1086C68.1992 13.5907 70.9401 13.6639 71.0334 12.3465C71.0706 11.6511 69.9333 11.2669 68.9078 11.1205C66.9127 10.8095 65.0854 9.56521 65.0854 7.24139C65.0854 4.84439 67.3042 3.58185 69.579 3.58185C71.0893 3.58185 72.5436 4.0027 73.8302 5.52141L71.7792 7.07671C70.474 5.72268 68.2552 5.75928 68.1992 7.1865C68.2365 7.77203 68.8891 8.11969 69.8587 8.32096C72.0775 8.72351 74.2777 9.47372 74.1472 12.4745C74.0353 14.835 71.5181 16.1341 69.2247 16.1341C67.7331 16.1341 66.1482 15.3839 64.9922 13.9201L66.95 12.1086Z" fill="white"/>
<path d="M78.6042 15.9694H75.4531V3.76483H78.6042V15.9694Z" fill="white"/>
<path d="M80.582 3.76483H83.5653L86.5672 8.96139L87.63 11.4133L87.7233 11.395C87.7046 11.395 87.3877 9.29075 87.369 9.29075V3.76483H90.5015V15.9694H87.3131L84.4976 11.1571L83.4162 8.70522L83.3229 8.72352L83.7331 11.0839V15.9694H80.582V3.76483Z" fill="white"/>
<path d="M95.6268 8.55884H100.661V11.2303H95.6268V13.0601H101.109V15.9694H92.457V3.76483H101.109V6.65587H95.6268V8.55884Z" fill="white"/>
<path d="M104.165 12.1086C105.414 13.5907 108.155 13.6639 108.248 12.3465C108.285 11.6511 107.148 11.2669 106.123 11.1205C104.128 10.8095 102.3 9.56521 102.3 7.24139C102.3 4.84439 104.519 3.58185 106.794 3.58185C108.304 3.58185 109.758 4.0027 111.045 5.52141L108.994 7.07671C107.689 5.72268 105.47 5.75928 105.414 7.1865C105.451 7.77203 106.104 8.11969 107.074 8.32096C109.292 8.72351 111.492 9.47372 111.362 12.4745C111.25 14.835 108.733 16.1341 106.44 16.1341C104.948 16.1341 103.363 15.3839 102.207 13.9201L104.165 12.1086Z" fill="white"/>
<path d="M114.087 12.1086C115.336 13.5907 118.077 13.6639 118.17 12.3465C118.207 11.6511 117.07 11.2669 116.044 11.1205C114.049 10.8095 112.222 9.56521 112.222 7.24139C112.222 4.84439 114.441 3.58185 116.716 3.58185C118.226 3.58185 119.68 4.0027 120.967 5.52141L118.916 7.07671C117.611 5.72268 115.392 5.75928 115.336 7.1865C115.373 7.77203 116.026 8.11969 116.995 8.32096C119.214 8.72351 121.414 9.47372 121.284 12.4745C121.172 14.835 118.655 16.1341 116.361 16.1341C114.87 16.1341 113.285 15.3839 112.129 13.9201L114.087 12.1086Z" fill="white"/>
<path d="M127.904 12.438H122.422V9.51031H127.904V12.438Z" fill="white"/>
<path d="M132.807 11.889C132.807 13.8469 136.349 13.8469 136.368 11.889V3.76483H139.556V11.889C139.538 17.6162 129.618 17.6162 129.637 11.889V3.76483H132.825V11.889H132.807Z" fill="white"/>
<path d="M141.418 3.76483H146.396C149.436 3.76483 150.946 5.92396 150.946 8.0831C150.946 10.2605 149.417 12.4014 146.415 12.4014H144.569V15.9694H141.418V3.76483ZM146.378 9.6567C148.28 9.675 148.28 6.61928 146.378 6.63758H144.55V9.6567H146.378Z" fill="white"/>
<path d="M42.8789 28.747V21.0835H45.5882C46.8101 21.0835 47.8194 21.4484 48.5897 22.1783C49.36 22.9081 49.7584 23.8205 49.7584 24.9152C49.7584 26.01 49.36 26.9223 48.5897 27.6522C47.8194 28.3821 46.8101 28.747 45.6148 28.747H42.8789ZM43.7554 27.965H45.5882C46.571 27.965 47.3413 27.6783 47.9522 27.1048C48.5366 26.5313 48.8288 25.8015 48.8288 24.9413C48.8288 24.0811 48.5366 23.3513 47.9257 22.7778C47.3413 22.2043 46.5444 21.9176 45.5882 21.9176H43.7554V27.965Z" fill="white"/>
<path d="M51.4805 21.8394V20.9271H52.4632V21.8654H51.4805V21.8394ZM51.5336 28.747V23.0906H52.3836V28.747H51.5336Z" fill="white"/>
<path d="M56.9546 30.5195C55.9718 30.5195 55.0953 30.2589 54.325 29.7375L54.7234 29.0859C55.414 29.5812 56.1312 29.8157 56.9546 29.8157C57.5921 29.8157 58.1233 29.6333 58.4952 29.2944C58.8671 28.9556 59.053 28.4603 59.053 27.8086V27.1309C58.4421 27.939 57.6983 28.33 56.7952 28.33C56.0781 28.33 55.4406 28.0954 54.8828 27.6001C54.3516 27.1049 54.0859 26.4532 54.0859 25.6712C54.0859 24.8632 54.3516 24.2376 54.9094 23.7423C55.4406 23.247 56.0781 23.0125 56.7952 23.0125C57.7249 23.0125 58.4686 23.4034 59.053 24.1594V23.1428H59.903V27.8347C59.903 28.6949 59.6639 29.3466 59.1592 29.8418C58.6546 30.2849 57.9108 30.5195 56.9546 30.5195ZM56.9546 27.574C57.5124 27.574 58.0171 27.3916 58.4421 27.0267C58.8671 26.6617 59.0796 26.1925 59.0796 25.6451C59.0796 25.0978 58.8671 24.6286 58.4421 24.2636C58.0171 23.8987 57.5124 23.7162 56.9546 23.7162C56.3968 23.7162 55.9187 23.8987 55.5203 24.2376C55.1484 24.6025 54.9359 25.0456 54.9359 25.6451C54.9359 26.1925 55.1218 26.6617 55.5203 27.0267C55.9187 27.3916 56.3968 27.574 56.9546 27.574Z" fill="white"/>
<path d="M61.8438 21.8394V20.9271H62.8266V21.8654H61.8438V21.8394ZM61.8969 28.747V23.0906H62.7469V28.747H61.8969Z" fill="white"/>
<path d="M66.6781 28.8512C66.1734 28.8512 65.775 28.7209 65.4828 28.4602C65.1906 28.1996 65.0312 27.8086 65.0312 27.2612V23.8465H64.2344V23.0906H65.0312V21.3702H65.8812V23.0906H67.714V23.8465H65.8812V27.1569C65.8812 27.7825 66.2 28.0953 66.864 28.0953C67.1562 28.0953 67.4218 28.0171 67.714 27.8868V28.6166C67.4218 28.773 67.0499 28.8512 66.6781 28.8512Z" fill="white"/>
<path d="M70.9796 28.8773C70.3953 28.8773 69.8906 28.7209 69.4656 28.4081C69.0406 28.0953 68.8281 27.6522 68.8281 27.1048C68.8281 26.5053 69.0406 26.0622 69.4922 25.7233C69.9437 25.4105 70.5281 25.228 71.2984 25.228C71.8827 25.228 72.4937 25.3062 73.0515 25.4626V25.2802C73.0515 24.7849 72.8921 24.3939 72.5999 24.1332C72.3077 23.8726 71.8827 23.7423 71.3249 23.7423C70.7671 23.7423 70.1828 23.8726 69.5719 24.1593L69.3062 23.4816C70.0234 23.1688 70.714 22.9863 71.4046 22.9863C72.228 22.9863 72.839 23.1949 73.2639 23.6119C73.6624 24.0029 73.8749 24.5503 73.8749 25.2802V28.747H73.0515V27.9129C72.5468 28.5645 71.8562 28.8773 70.9796 28.8773ZM71.139 28.1996C71.6702 28.1996 72.1218 28.0693 72.4937 27.7825C72.8655 27.4958 73.0515 27.1309 73.0515 26.6877V26.1664C72.4937 26.01 71.9359 25.9318 71.3781 25.9318C70.8468 25.9318 70.4484 26.0361 70.1297 26.2446C69.8375 26.4532 69.6781 26.7399 69.6781 27.1048C69.6781 27.4437 69.8109 27.7304 70.1031 27.9389C70.3953 28.0953 70.7406 28.1996 71.139 28.1996Z" fill="white"/>
<path d="M75.8125 28.747V20.7446H76.6625V28.747H75.8125Z" fill="white"/>
<path d="M83.7335 28.8773C83.1492 28.8773 82.6445 28.7209 82.2195 28.4081C81.7945 28.0953 81.582 27.6522 81.582 27.1048C81.582 26.5053 81.7945 26.0622 82.2461 25.7233C82.6976 25.4105 83.282 25.228 84.0523 25.228C84.6366 25.228 85.2476 25.3062 85.8054 25.4626V25.2802C85.8054 24.7849 85.646 24.3939 85.3538 24.1332C85.0616 23.8726 84.6367 23.7423 84.0789 23.7423C83.521 23.7423 82.9367 23.8726 82.3258 24.1593L82.0601 23.4816C82.7773 23.1688 83.4679 22.9863 84.1585 22.9863C84.982 22.9863 85.5929 23.1949 86.0179 23.6119C86.4163 24.0029 86.6288 24.5503 86.6288 25.2802V28.747H85.8054V27.9129C85.3007 28.5645 84.6101 28.8773 83.7335 28.8773ZM83.8929 28.1996C84.4242 28.1996 84.8757 28.0693 85.2476 27.7825C85.6194 27.4958 85.8054 27.1309 85.8054 26.6877V26.1664C85.2476 26.01 84.6898 25.9318 84.132 25.9318C83.6007 25.9318 83.2023 26.0361 82.8836 26.2446C82.5914 26.4532 82.432 26.7399 82.432 27.1048C82.432 27.4437 82.5648 27.7304 82.857 27.9389C83.1492 28.0953 83.4945 28.1996 83.8929 28.1996Z" fill="white"/>
<path d="M91.0367 30.5195C90.0539 30.5195 89.1773 30.2589 88.407 29.7375L88.8055 29.0859C89.4961 29.5812 90.2132 29.8157 91.0367 29.8157C91.6741 29.8157 92.2054 29.6333 92.5772 29.2944C92.9491 28.9556 93.135 28.4603 93.135 27.8086V27.1309C92.5241 27.939 91.7804 28.33 90.8773 28.33C90.1601 28.33 89.5226 28.0954 88.9648 27.6001C88.4336 27.1049 88.168 26.4532 88.168 25.6712C88.168 24.8632 88.4336 24.2376 88.9914 23.7423C89.5226 23.247 90.1601 23.0125 90.8773 23.0125C91.807 23.0125 92.5507 23.4034 93.135 24.1594V23.1428H93.985V27.8347C93.985 28.6949 93.746 29.3466 93.2413 29.8418C92.7366 30.2849 91.9929 30.5195 91.0367 30.5195ZM91.0367 27.574C91.5945 27.574 92.0991 27.3916 92.5241 27.0267C92.9491 26.6617 93.1616 26.1925 93.1616 25.6451C93.1616 25.0978 92.9491 24.6286 92.5241 24.2636C92.0991 23.8987 91.5945 23.7162 91.0367 23.7162C90.4789 23.7162 90.0007 23.8987 89.6023 24.2376C89.2304 24.6025 89.018 25.0456 89.018 25.6451C89.018 26.1925 89.2039 26.6617 89.6023 27.0267C90.0007 27.3916 90.4789 27.574 91.0367 27.574Z" fill="white"/>
<path d="M96.4 26.2707C96.4531 26.8442 96.6922 27.3134 97.064 27.6523C97.4359 27.9911 97.914 28.1736 98.4187 28.1736C99.1093 28.1736 99.7202 27.9129 100.251 27.3655L100.783 27.8347C100.145 28.5385 99.3483 28.9034 98.3921 28.9034C97.5687 28.9034 96.9047 28.6167 96.3469 28.0693C95.7891 27.5219 95.5234 26.8181 95.5234 25.9319C95.5234 25.0978 95.7891 24.394 96.3203 23.8205C96.8515 23.2471 97.5156 22.9603 98.2859 22.9603C99.1093 22.9603 99.7733 23.2471 100.251 23.8205C100.73 24.394 100.969 25.0978 100.969 25.9579C100.969 26.0622 100.969 26.1665 100.969 26.2447H96.4V26.2707ZM96.4 25.593H100.119C100.065 25.0456 99.8796 24.6025 99.5608 24.2376C99.2421 23.8726 98.8171 23.6902 98.2593 23.6902C97.7812 23.6902 97.3562 23.8726 96.9843 24.2376C96.6656 24.5764 96.4797 25.0196 96.4 25.593Z" fill="white"/>
<path d="M102.512 28.747V23.0906H103.362V24.0811C103.813 23.3513 104.477 22.9863 105.327 22.9863C106.018 22.9863 106.549 23.1949 106.948 23.6119C107.346 24.029 107.532 24.5764 107.532 25.2541V28.747H106.682V25.4366C106.682 24.9152 106.549 24.4982 106.257 24.1854C105.965 23.8726 105.593 23.7423 105.088 23.7423C104.584 23.7423 104.185 23.8986 103.84 24.2375C103.521 24.5764 103.335 24.9934 103.335 25.5148V28.747H102.512Z" fill="white"/>
<path d="M111.995 28.8773C111.172 28.8773 110.455 28.5906 109.897 28.0171C109.339 27.4437 109.047 26.7399 109.047 25.9318C109.047 25.1238 109.339 24.42 109.897 23.8465C110.455 23.2731 111.172 22.9863 111.995 22.9863C112.898 22.9863 113.669 23.3252 114.306 24.0029L113.748 24.5764C113.217 24.029 112.633 23.7423 111.969 23.7423C111.384 23.7423 110.906 23.9508 110.508 24.3939C110.109 24.811 109.923 25.3584 109.923 25.9579C109.923 26.5835 110.136 27.1048 110.534 27.5219C110.933 27.9389 111.437 28.1735 112.048 28.1735C112.659 28.1735 113.244 27.8868 113.801 27.3133L114.359 27.8347C113.669 28.5124 112.898 28.8773 111.995 28.8773Z" fill="white"/>
<path d="M116.668 30.5456C116.243 30.5456 115.845 30.4414 115.446 30.2589L115.738 29.5812C116.004 29.7115 116.323 29.7897 116.641 29.7897C116.907 29.7897 117.119 29.7115 117.305 29.5551C117.491 29.3987 117.651 29.112 117.837 28.721L115.207 23.0646H116.163L118.262 27.7826L120.121 23.0646H121.024L118.607 28.9295C118.368 29.503 118.102 29.92 117.784 30.1546C117.465 30.4153 117.093 30.5456 116.668 30.5456Z" fill="white"/>
<defs>
<linearGradient id="paint0_linear" x1="-0.998226" y1="15.1216" x2="14.2582" y2="-0.307979" gradientUnits="userSpaceOnUse">
<stop stop-color="#CE2000"/>
<stop offset="0.6128" stop-color="#A61A00"/>
<stop offset="1" stop-color="#DD1500"/>
</linearGradient>
<linearGradient id="paint1_linear" x1="-1.01438" y1="24.1972" x2="21.2741" y2="1.65574" gradientUnits="userSpaceOnUse">
<stop stop-color="#CE2000"/>
<stop offset="0.6128" stop-color="#A61A00"/>
<stop offset="1" stop-color="#DD1500"/>
</linearGradient>
<linearGradient id="paint2_linear" x1="4.53797" y1="29.104" x2="27.4905" y2="5.89095" gradientUnits="userSpaceOnUse">
<stop stop-color="#CE2000"/>
<stop offset="0.6128" stop-color="#A61A00"/>
<stop offset="1" stop-color="#DD1500"/>
</linearGradient>
<linearGradient id="paint3_linear" x1="10.515" y1="32.5665" x2="32.5346" y2="10.2971" gradientUnits="userSpaceOnUse">
<stop stop-color="#CE2000"/>
<stop offset="0.6128" stop-color="#A61A00"/>
<stop offset="1" stop-color="#DD1500"/>
</linearGradient>
<linearGradient id="paint4_linear" x1="18.4967" y1="35.2085" x2="33.7531" y2="19.7789" gradientUnits="userSpaceOnUse">
<stop stop-color="#CE2000"/>
<stop offset="0.6128" stop-color="#A61A00"/>
<stop offset="1" stop-color="#DD1500"/>
</linearGradient>
</defs>
</svg>