<svg width="151" height="35" viewBox="0 0 151 35" fill="none" xmlns="http://www.w3.org/2000/svg">
<path d="M13.7235 3.68746C6.70557 6.06078 2.36226 10.3328 -0.449463 15.6671C0.92211 8.00465 5.49402 3.37102 12.8091 1.31414C12.9919 1.26893 13.152 1.22373 13.3348 1.20112C16.0323 0.72646 16.8552 1.51757 15.3693 2.78334C14.8893 3.19019 14.3178 3.48403 13.7235 3.68746Z" fill="url(#paint0_linear_242_14)"/>
<path d="M2.20335 27.399C-0.105467 24.0989 -0.608378 20.5276 1.47184 16.5495C2.84341 14.1084 4.55788 12.0515 6.66096 10.4241C8.19255 9.22609 9.92987 8.34457 11.7815 7.68908C17.885 5.51919 20.4224 3.28148 18.4336 0.953369C20.7424 1.11159 22.5255 1.78968 22.3426 4.25342C21.3368 8.29936 17.7936 10.8535 12.8559 12.6392C11.4386 13.159 10.067 13.7919 8.7869 14.6282C3.89495 17.77 1.56328 21.9742 2.20335 27.399Z" fill="url(#paint1_linear_242_14)"/>
<path d="M18.3863 20.0077C11.3685 23.127 6.91086 25.4777 8.03098 32.4394C2.63613 28.3935 4.48775 20.2338 11.1399 16.7529C22.341 11.622 26.7758 6.76234 24.2384 2.7616C29.3589 7.05618 29.3818 11.509 24.307 16.1426C22.5696 17.77 20.558 19.0584 18.3863 20.0077Z" fill="url(#paint2_linear_242_14)"/>
<path d="M24.9021 25.4777C16.9241 31.4901 12.718 30.4052 14.0895 34.2477C5.88296 32.4394 11.1864 26.8791 19.0958 22.8331C21.1989 21.7482 23.2334 20.6632 25.1078 19.2392C30.8456 14.9221 30.5027 9.40691 29.0397 6.87537C34.8003 12.5487 31.8743 19.9851 24.9021 25.4777Z" fill="url(#paint3_linear_242_14)"/>
<path d="M19.2108 31.3771C26.2287 29.0038 30.572 24.7318 33.3837 19.3975C32.0121 27.0374 27.4402 31.6936 20.1252 33.7505C19.9423 33.7957 19.7823 33.8409 19.5994 33.8635C16.902 34.3381 16.079 33.547 17.5649 32.2813C18.0449 31.897 18.6164 31.5806 19.2108 31.3771Z" fill="url(#paint4_linear_242_14)"/>
<path d="M50.6154 9.47372C52.3121 10.3154 52.5358 11.889 52.368 12.8222C52.0511 14.7801 50.7086 15.9694 47.949 15.9694H42.8774V3.76483H47.8745C50.2424 3.76483 51.9765 5.15546 51.9205 7.47927C51.8833 8.0465 51.529 9.01628 50.6154 9.47372ZM47.8745 8.54054C49.4034 8.54054 49.4593 6.36311 47.8745 6.36311H46.0472V8.54054H47.8745ZM47.8745 13.2614C49.7763 13.2614 49.739 10.7546 47.8745 10.7546H46.0472V13.2614H47.8745Z" fill="#171717"/>
<path d="M56.9562 11.889C56.9562 13.8469 60.4988 13.8469 60.5175 11.889V3.76483H63.7059V11.889C63.6872 17.6162 53.7678 17.6162 53.7864 11.889V3.76483H56.9562V11.889Z" fill="#171717"/>
<path d="M66.9483 12.1086C68.1975 13.5907 70.9384 13.6639 71.0316 12.3465C71.0689 11.6511 69.9316 11.2669 68.906 11.1205C66.911 10.8095 65.0837 9.56521 65.0837 7.24139C65.0837 4.84439 67.3025 3.58185 69.5773 3.58185C71.0876 3.58185 72.5419 4.0027 73.8285 5.52141L71.7775 7.07671C70.4723 5.72268 68.2535 5.75928 68.1975 7.1865C68.2348 7.77203 68.8874 8.11969 69.857 8.32096C72.0758 8.72351 74.276 9.47372 74.1455 12.4745C74.0336 14.835 71.5164 16.1341 69.223 16.1341C67.7314 16.1341 66.1465 15.3839 64.9905 13.9201L66.9483 12.1086Z" fill="#171717"/>
<path d="M78.6037 15.9694H75.4526V3.76483H78.6037V15.9694Z" fill="#171717"/>
<path d="M80.5793 3.76483H83.5626L86.5646 8.96139L87.6274 11.4133L87.7206 11.395C87.7019 11.395 87.385 9.29075 87.3663 9.29075V3.76483H90.4988V15.9694H87.3104L84.4949 11.1571L83.4135 8.70522L83.3202 8.72352L83.7304 11.0839V15.9694H80.5793V3.76483Z" fill="#171717"/>
<path d="M95.627 8.55884H100.661V11.2303H95.627V13.0601H101.109V15.9694H92.4573V3.76483H101.109V6.65587H95.627V8.55884Z" fill="#171717"/>
<path d="M104.164 12.1086C105.413 13.5907 108.154 13.6639 108.247 12.3465C108.284 11.6511 107.147 11.2669 106.122 11.1205C104.127 10.8095 102.299 9.56521 102.299 7.24139C102.299 4.84439 104.518 3.58185 106.793 3.58185C108.303 3.58185 109.757 4.0027 111.044 5.52141L108.993 7.07671C107.688 5.72268 105.469 5.75928 105.413 7.1865C105.45 7.77203 106.103 8.11969 107.073 8.32096C109.291 8.72351 111.492 9.47372 111.361 12.4745C111.249 14.835 108.732 16.1341 106.439 16.1341C104.947 16.1341 103.362 15.3839 102.206 13.9201L104.164 12.1086Z" fill="#171717"/>
<path d="M114.085 12.1086C115.335 13.5907 118.076 13.6639 118.169 12.3465C118.206 11.6511 117.069 11.2669 116.043 11.1205C114.048 10.8095 112.221 9.56521 112.221 7.24139C112.221 4.84439 114.44 3.58185 116.714 3.58185C118.225 3.58185 119.679 4.0027 120.966 5.52141L118.915 7.07671C117.609 5.72268 115.391 5.75928 115.335 7.1865C115.372 7.77203 116.025 8.11969 116.994 8.32096C119.213 8.72351 121.413 9.47372 121.283 12.4745C121.171 14.835 118.654 16.1341 116.36 16.1341C114.869 16.1341 113.284 15.3839 112.128 13.9201L114.085 12.1086Z" fill="#171717"/>
<path d="M127.902 12.438H122.42V9.51031H127.902V12.438Z" fill="#171717"/>
<path d="M132.806 11.889C132.806 13.8469 136.349 13.8469 136.368 11.889V3.76483H139.556V11.889C139.537 17.6162 129.618 17.6162 129.637 11.889V3.76483H132.825V11.889H132.806Z" fill="#171717"/>
<path d="M141.417 3.76483H146.396C149.435 3.76483 150.945 5.92396 150.945 8.0831C150.945 10.2605 149.416 12.4014 146.414 12.4014H144.568V15.9694H141.417V3.76483ZM146.377 9.6567C148.279 9.675 148.279 6.61928 146.377 6.63758H144.55V9.6567H146.377Z" fill="#171717"/>
<path d="M42.8774 28.747V21.0835H45.5868C46.8086 21.0835 47.8179 21.4484 48.5882 22.1783C49.3585 22.9081 49.757 23.8205 49.757 24.9152C49.757 26.01 49.3585 26.9223 48.5882 27.6522C47.8179 28.3821 46.8086 28.747 45.6133 28.747H42.8774ZM43.754 27.965H45.5868C46.5695 27.965 47.3398 27.6783 47.9508 27.1048C48.5351 26.5313 48.8273 25.8015 48.8273 24.9413C48.8273 24.0811 48.5351 23.3513 47.9242 22.7778C47.3398 22.2043 46.543 21.9176 45.5868 21.9176H43.754V27.965Z" fill="#171717"/>
<path d="M51.4805 21.8394V20.9271H52.4632V21.8654H51.4805V21.8394ZM51.5336 28.747V23.0906H52.3836V28.747H51.5336Z" fill="#171717"/>
<path d="M56.9539 30.5195C55.9711 30.5195 55.0946 30.2589 54.3243 29.7375L54.7227 29.0859C55.4133 29.5812 56.1305 29.8157 56.9539 29.8157C57.5914 29.8157 58.1226 29.6333 58.4945 29.2944C58.8663 28.9556 59.0523 28.4603 59.0523 27.8086V27.1309C58.4413 27.939 57.6976 28.33 56.7945 28.33C56.0773 28.33 55.4399 28.0954 54.8821 27.6001C54.3508 27.1049 54.0852 26.4532 54.0852 25.6712C54.0852 24.8632 54.3508 24.2376 54.9086 23.7423C55.4399 23.247 56.0773 23.0125 56.7945 23.0125C57.7242 23.0125 58.4679 23.4034 59.0523 24.1594V23.1428H59.9022V27.8347C59.9022 28.6949 59.6632 29.3466 59.1585 29.8418C58.6538 30.2849 57.9101 30.5195 56.9539 30.5195ZM56.9539 27.574C57.5117 27.574 58.0164 27.3916 58.4413 27.0267C58.8663 26.6617 59.0788 26.1925 59.0788 25.6451C59.0788 25.0978 58.8663 24.6286 58.4413 24.2636C58.0164 23.8987 57.5117 23.7162 56.9539 23.7162C56.3961 23.7162 55.918 23.8987 55.5195 24.2376C55.1477 24.6025 54.9352 25.0456 54.9352 25.6451C54.9352 26.1925 55.1211 26.6617 55.5195 27.0267C55.918 27.3916 56.3961 27.574 56.9539 27.574Z" fill="#171717"/>
<path d="M61.8418 21.8394V20.9271H62.8246V21.8654H61.8418V21.8394ZM61.8949 28.747V23.0906H62.7449V28.747H61.8949Z" fill="#171717"/>
<path d="M66.6776 28.8512C66.1729 28.8512 65.7745 28.7209 65.4823 28.4602C65.1901 28.1996 65.0307 27.8086 65.0307 27.2612V23.8465H64.2339V23.0906H65.0307V21.3702H65.8807V23.0906H67.7135V23.8465H65.8807V27.1569C65.8807 27.7825 66.1995 28.0953 66.8635 28.0953C67.1557 28.0953 67.4213 28.0171 67.7135 27.8868V28.6166C67.4213 28.773 67.0494 28.8512 66.6776 28.8512Z" fill="#171717"/>
<path d="M70.9789 28.8773C70.3945 28.8773 69.8899 28.7209 69.4649 28.4081C69.0399 28.0953 68.8274 27.6522 68.8274 27.1048C68.8274 26.5053 69.0399 26.0622 69.4914 25.7233C69.943 25.4105 70.5273 25.228 71.2976 25.228C71.882 25.228 72.4929 25.3062 73.0507 25.4626V25.2802C73.0507 24.7849 72.8913 24.3939 72.5992 24.1332C72.307 23.8726 71.882 23.7423 71.3242 23.7423C70.7664 23.7423 70.182 23.8726 69.5711 24.1593L69.3055 23.4816C70.0227 23.1688 70.7133 22.9863 71.4039 22.9863C72.2273 22.9863 72.8382 23.1949 73.2632 23.6119C73.6616 24.0029 73.8741 24.5503 73.8741 25.2802V28.747H73.0507V27.9129C72.546 28.5645 71.8554 28.8773 70.9789 28.8773ZM71.1383 28.1996C71.6695 28.1996 72.1211 28.0693 72.4929 27.7825C72.8648 27.4958 73.0507 27.1309 73.0507 26.6877V26.1664C72.4929 26.01 71.9351 25.9318 71.3773 25.9318C70.8461 25.9318 70.4477 26.0361 70.1289 26.2446C69.8367 26.4532 69.6774 26.7399 69.6774 27.1048C69.6774 27.4437 69.8102 27.7304 70.1024 27.9389C70.3945 28.0953 70.7398 28.1996 71.1383 28.1996Z" fill="#171717"/>
<path d="M75.813 28.747V20.7446H76.663V28.747H75.813Z" fill="#171717"/>
<path d="M83.7323 28.8773C83.148 28.8773 82.6433 28.7209 82.2183 28.4081C81.7933 28.0953 81.5808 27.6522 81.5808 27.1048C81.5808 26.5053 81.7933 26.0622 82.2449 25.7233C82.6964 25.4105 83.2808 25.228 84.0511 25.228C84.6354 25.228 85.2464 25.3062 85.8042 25.4626V25.2802C85.8042 24.7849 85.6448 24.3939 85.3526 24.1332C85.0604 23.8726 84.6354 23.7423 84.0776 23.7423C83.5198 23.7423 82.9355 23.8726 82.3245 24.1593L82.0589 23.4816C82.7761 23.1688 83.4667 22.9863 84.1573 22.9863C84.9807 22.9863 85.5917 23.1949 86.0166 23.6119C86.4151 24.0029 86.6276 24.5503 86.6276 25.2802V28.747H85.8042V27.9129C85.2995 28.5645 84.6089 28.8773 83.7323 28.8773ZM83.8917 28.1996C84.4229 28.1996 84.8745 28.0693 85.2464 27.7825C85.6182 27.4958 85.8042 27.1309 85.8042 26.6877V26.1664C85.2464 26.01 84.6886 25.9318 84.1308 25.9318C83.5995 25.9318 83.2011 26.0361 82.8823 26.2446C82.5902 26.4532 82.4308 26.7399 82.4308 27.1048C82.4308 27.4437 82.5636 27.7304 82.8558 27.9389C83.148 28.0953 83.4933 28.1996 83.8917 28.1996Z" fill="#171717"/>
<path d="M91.0352 30.5195C90.0524 30.5195 89.1759 30.2589 88.4056 29.7375L88.804 29.0859C89.4946 29.5812 90.2118 29.8157 91.0352 29.8157C91.6727 29.8157 92.2039 29.6333 92.5758 29.2944C92.9476 28.9556 93.1336 28.4603 93.1336 27.8086V27.1309C92.5227 27.939 91.7789 28.33 90.8758 28.33C90.1587 28.33 89.5212 28.0954 88.9634 27.6001C88.4321 27.1049 88.1665 26.4532 88.1665 25.6712C88.1665 24.8632 88.4321 24.2376 88.9899 23.7423C89.5212 23.247 90.1587 23.0125 90.8758 23.0125C91.8055 23.0125 92.5492 23.4034 93.1336 24.1594V23.1428H93.9836V27.8347C93.9836 28.6949 93.7445 29.3466 93.2398 29.8418C92.7352 30.2849 91.9914 30.5195 91.0352 30.5195ZM91.0352 27.574C91.593 27.574 92.0977 27.3916 92.5227 27.0267C92.9476 26.6617 93.1601 26.1925 93.1601 25.6451C93.1601 25.0978 92.9476 24.6286 92.5227 24.2636C92.0977 23.8987 91.593 23.7162 91.0352 23.7162C90.4774 23.7162 89.9993 23.8987 89.6008 24.2376C89.229 24.6025 89.0165 25.0456 89.0165 25.6451C89.0165 26.1925 89.2024 26.6617 89.6008 27.0267C89.9993 27.3916 90.4774 27.574 91.0352 27.574Z" fill="#171717"/>
<path d="M96.3995 26.2707C96.4526 26.8442 96.6917 27.3134 97.0635 27.6523C97.4354 27.9911 97.9135 28.1736 98.4182 28.1736C99.1088 28.1736 99.7197 27.9129 100.251 27.3655L100.782 27.8347C100.145 28.5385 99.3478 28.9034 98.3916 28.9034C97.5682 28.9034 96.9042 28.6167 96.3464 28.0693C95.7886 27.5219 95.5229 26.8181 95.5229 25.9319C95.5229 25.0978 95.7886 24.394 96.3198 23.8205C96.851 23.2471 97.5151 22.9603 98.2854 22.9603C99.1088 22.9603 99.7728 23.2471 100.251 23.8205C100.729 24.394 100.968 25.0978 100.968 25.9579C100.968 26.0622 100.968 26.1665 100.968 26.2447H96.3995V26.2707ZM96.3995 25.593H100.118C100.065 25.0456 99.8791 24.6025 99.5603 24.2376C99.2416 23.8726 98.8166 23.6902 98.2588 23.6902C97.7807 23.6902 97.3557 23.8726 96.9838 24.2376C96.6651 24.5764 96.4792 25.0196 96.3995 25.593Z" fill="#171717"/>
<path d="M102.509 28.747V23.0906H103.359V24.0811C103.81 23.3513 104.474 22.9863 105.324 22.9863C106.015 22.9863 106.546 23.1949 106.944 23.6119C107.343 24.029 107.529 24.5764 107.529 25.2541V28.747H106.679V25.4366C106.679 24.9152 106.546 24.4982 106.254 24.1854C105.962 23.8726 105.59 23.7423 105.085 23.7423C104.58 23.7423 104.182 23.8986 103.837 24.2375C103.518 24.5764 103.332 24.9934 103.332 25.5148V28.747H102.509Z" fill="#171717"/>
<path d="M111.992 28.8773C111.169 28.8773 110.451 28.5906 109.894 28.0171C109.336 27.4437 109.044 26.7399 109.044 25.9318C109.044 25.1238 109.336 24.42 109.894 23.8465C110.451 23.2731 111.169 22.9863 111.992 22.9863C112.895 22.9863 113.665 23.3252 114.303 24.0029L113.745 24.5764C113.214 24.029 112.63 23.7423 111.965 23.7423C111.381 23.7423 110.903 23.9508 110.505 24.3939C110.106 24.811 109.92 25.3584 109.92 25.9579C109.92 26.5835 110.133 27.1048 110.531 27.5219C110.93 27.9389 111.434 28.1735 112.045 28.1735C112.656 28.1735 113.24 27.8868 113.798 27.3133L114.356 27.8347C113.665 28.5124 112.895 28.8773 111.992 28.8773Z" fill="#171717"/>
<path d="M116.665 30.5456C116.24 30.5456 115.842 30.4414 115.443 30.2589L115.736 29.5812C116.001 29.7115 116.32 29.7897 116.639 29.7897C116.904 29.7897 117.117 29.7115 117.303 29.5551C117.489 29.3987 117.648 29.112 117.834 28.721L115.204 23.0646H116.161L118.259 27.7826L120.118 23.0646H121.021L118.604 28.9295C118.365 29.503 118.1 29.92 117.781 30.1546C117.462 30.4153 117.09 30.5456 116.665 30.5456Z" fill="#171717"/>
<defs>
<linearGradient id="paint0_linear_242_14" x1="-0.99847" y1="15.1216" x2="14.258" y2="-0.307979" gradientUnits="userSpaceOnUse">
<stop stop-color="#CE2000"/>
<stop offset="0.6128" stop-color="#A61A00"/>
<stop offset="1" stop-color="#DD1500"/>
</linearGradient>
<linearGradient id="paint1_linear_242_14" x1="-1.01512" y1="24.1972" x2="21.2734" y2="1.65574" gradientUnits="userSpaceOnUse">
<stop stop-color="#CE2000"/>
<stop offset="0.6128" stop-color="#A61A00"/>
<stop offset="1" stop-color="#DD1500"/>
</linearGradient>
<linearGradient id="paint2_linear_242_14" x1="4.53797" y1="29.104" x2="27.4905" y2="5.89095" gradientUnits="userSpaceOnUse">
<stop stop-color="#CE2000"/>
<stop offset="0.6128" stop-color="#A61A00"/>
<stop offset="1" stop-color="#DD1500"/>
</linearGradient>
<linearGradient id="paint3_linear_242_14" x1="10.5158" y1="32.5665" x2="32.5353" y2="10.2971" gradientUnits="userSpaceOnUse">
<stop stop-color="#CE2000"/>
<stop offset="0.6128" stop-color="#A61A00"/>
<stop offset="1" stop-color="#DD1500"/>
</linearGradient>
<linearGradient id="paint4_linear_242_14" x1="18.4972" y1="35.2085" x2="33.7536" y2="19.7789" gradientUnits="userSpaceOnUse">
<stop stop-color="#CE2000"/>
<stop offset="0.6128" stop-color="#A61A00"/>
<stop offset="1" stop-color="#DD1500"/>
</linearGradient>
</defs>
</svg>
