<svg width="40" height="39" viewBox="0 0 40 39" fill="none" xmlns="http://www.w3.org/2000/svg">
<path d="M36.0518 14.3H22.0209L23.3209 13H25.6518C27.4438 13 28.9018 11.542 28.9018 9.75V3.25C28.9018 1.45795 27.4438 0 25.6518 0H13.9518C12.1597 0 10.7018 1.45795 10.7018 3.25V9.75C10.7018 11.542 12.1597 13 13.9518 13H16.2827L17.5827 14.3H3.55176C1.75971 14.3 0.301758 15.7579 0.301758 17.55V35.75C0.301758 37.542 1.75971 39 3.55176 39H36.0518C37.8438 39 39.3018 37.542 39.3018 35.75V17.55C39.3018 15.7579 37.8438 14.3 36.0518 14.3ZM16.5518 11.7H13.9518C12.8767 11.7 12.0018 10.8251 12.0018 9.75V3.25C12.0018 2.1749 12.8767 1.3 13.9518 1.3H25.6518C26.7269 1.3 27.6018 2.1749 27.6018 3.25V9.75C27.6018 10.8251 26.7269 11.7 25.6518 11.7H23.0518C22.8795 11.7 22.7138 11.7682 22.5922 11.8904L19.9922 14.4904L19.8018 14.6809L19.6113 14.4904L17.0113 11.8904C16.8898 11.7682 16.724 11.7 16.5518 11.7ZM19.3422 16.0595C19.469 16.1863 19.6354 16.25 19.8018 16.25C19.9682 16.25 20.1346 16.1863 20.2613 16.0595L20.7209 15.6H33.4518V37.7H6.15176V15.6H18.8827L19.3422 16.0595ZM1.60176 35.75V17.55C1.60176 16.4749 2.47666 15.6 3.55176 15.6H4.85176V37.7H3.55176C2.47666 37.7 1.60176 36.8251 1.60176 35.75ZM38.0018 35.75C38.0018 36.8251 37.1269 37.7 36.0518 37.7H34.7518V15.6H36.0518C37.1269 15.6 38.0018 16.4749 38.0018 17.55V35.75Z" fill="white"/>
<path d="M12.6515 30.55C13.3652 30.55 14.0204 30.3115 14.5573 29.9202L23.7197 32.9745C23.7158 33.0337 23.7015 33.0896 23.7015 33.15C23.7015 34.9421 25.1595 36.4 26.9515 36.4C28.7436 36.4 30.2015 34.9421 30.2015 33.15C30.2015 31.358 28.7436 29.9 26.9515 29.9C25.6769 29.9 24.5829 30.6443 24.0506 31.7148L15.4849 28.8594C15.7423 28.3946 15.9015 27.8681 15.9015 27.3C15.9015 26.9055 15.8203 26.5324 15.6909 26.182L22.4581 22.7988C23.0535 23.5547 23.9667 24.05 25.0015 24.05C26.7936 24.05 28.2515 22.5921 28.2515 20.8C28.2515 19.008 26.7936 17.55 25.0015 17.55C23.2095 17.55 21.7515 19.008 21.7515 20.8C21.7515 21.0912 21.8022 21.3681 21.8744 21.6366L15.0052 25.0712C14.4124 24.4459 13.5791 24.05 12.6515 24.05C10.8595 24.05 9.40155 25.508 9.40155 27.3C9.40155 29.0921 10.8595 30.55 12.6515 30.55ZM26.9515 31.2C28.0266 31.2 28.9015 32.0749 28.9015 33.15C28.9015 34.2251 28.0266 35.1 26.9515 35.1C25.8764 35.1 25.0015 34.2251 25.0015 33.15C25.0015 32.0749 25.8764 31.2 26.9515 31.2ZM25.0015 18.85C26.0766 18.85 26.9515 19.7249 26.9515 20.8C26.9515 21.8751 26.0766 22.75 25.0015 22.75C23.9264 22.75 23.0515 21.8751 23.0515 20.8C23.0515 19.7249 23.9264 18.85 25.0015 18.85ZM12.6515 25.35C13.7266 25.35 14.6015 26.2249 14.6015 27.3C14.6015 28.3751 13.7266 29.25 12.6515 29.25C11.5764 29.25 10.7016 28.3751 10.7016 27.3C10.7016 26.2249 11.5764 25.35 12.6515 25.35Z" fill="white"/>
<path d="M20.2525 10.868L23.5649 7.67321C24.0719 7.18442 24.3514 6.53181 24.3514 5.83696C24.3514 5.14211 24.0726 4.48951 23.5649 3.99941C22.534 3.00426 20.8551 3.00491 19.8235 3.99941L19.8014 4.02022L19.7793 3.99941C18.7484 3.00426 17.0695 3.00621 16.0379 3.99941C15.5303 4.48886 15.2514 5.14146 15.2514 5.83631C15.2514 6.53117 15.5309 7.18376 16.0379 7.67256L19.3503 10.8673C19.4764 10.9889 19.6389 11.05 19.8014 11.05C19.9639 11.05 20.1264 10.9889 20.2525 10.868ZM16.9408 6.73721C16.6892 6.49541 16.5514 6.17562 16.5514 5.83631C16.5514 5.49701 16.6892 5.17656 16.9408 4.93411C17.2079 4.67671 17.5583 4.54801 17.9093 4.54801C18.2596 4.54801 18.6106 4.67671 18.8771 4.93411L19.3503 5.39041C19.6025 5.63286 20.001 5.63286 20.2532 5.39041L20.7264 4.93411C21.26 4.42061 22.1291 4.41931 22.6627 4.93411C22.9136 5.17721 23.0514 5.49701 23.0514 5.83631C23.0514 6.17496 22.9136 6.49541 22.6621 6.73721L19.8014 9.49647L16.9408 6.73721Z" fill="white"/>
</svg>
