<svg xmlns="http://www.w3.org/2000/svg" width="39" height="39" viewBox="0 0 39 39" fill="none">
<g clip-path="url(#clip0)">
<path d="M24.8725 12.4371L22.3162 11.6847L20.8097 9.49003C20.5129 9.05752 20.0223 8.79938 19.4974 8.79938C18.9725 8.79938 18.4819 9.0576 18.1851 9.49003L16.6786 11.6847L14.1222 12.4371C13.6182 12.5854 13.2204 12.9721 13.0583 13.4715C12.8962 13.9706 12.9907 14.5167 13.311 14.9324L14.9357 17.0406L14.8625 19.6996C14.8481 20.2236 15.0927 20.7206 15.517 21.0291C15.7929 21.2296 16.1212 21.3334 16.4531 21.3334C16.6322 21.3334 16.8125 21.3031 16.986 21.2415L19.4974 20.3499L22.0086 21.2415C22.5036 21.4173 23.0528 21.338 23.4777 21.0291C23.9019 20.7206 24.1466 20.2236 24.1321 19.6997L24.0589 17.0406L25.6837 14.9324C26.004 14.5167 26.0985 13.9706 25.9364 13.4715C25.7743 12.9722 25.3765 12.5855 24.8725 12.4371ZM24.477 14.0024L22.6867 16.3255C22.5797 16.4644 22.5238 16.6361 22.5286 16.8114L22.6093 19.7417C22.6096 19.7521 22.6103 19.7762 22.582 19.7968C22.5526 19.8181 22.5277 19.8093 22.5184 19.8059L19.7523 18.8238C19.5875 18.7653 19.4075 18.7653 19.2427 18.8238L16.4765 19.8059C16.467 19.8093 16.4423 19.8181 16.413 19.7968C16.3847 19.7762 16.3854 19.7521 16.3857 19.7416L16.4663 16.8114C16.4711 16.6361 16.4153 16.4644 16.3083 16.3255L14.518 14.0024C14.5117 13.9942 14.4968 13.975 14.5075 13.9421C14.5184 13.9087 14.5423 13.9016 14.5526 13.8986L17.3687 13.0697C17.5367 13.0204 17.6825 12.9145 17.7816 12.7701L19.4414 10.3522C19.4474 10.3435 19.4616 10.3228 19.4976 10.3228C19.5336 10.3228 19.5478 10.3435 19.5539 10.3522L21.2136 12.7701C21.3127 12.9145 21.4585 13.0203 21.6265 13.0697L24.4426 13.8986C24.4529 13.9016 24.4768 13.9087 24.4877 13.9421C24.4982 13.975 24.4833 13.9942 24.477 14.0024Z" fill="white"/>
<path d="M19.4993 4.40942C13.3696 4.40942 8.38281 9.38893 8.38281 15.5096C8.38281 21.6303 13.3696 26.6098 19.4993 26.6098C25.6289 26.6098 30.6158 21.6302 30.6158 15.5095C30.6158 9.38893 25.629 4.40942 19.4993 4.40942ZM19.4993 25.0863C14.2097 25.0863 9.90625 20.7902 9.90625 15.5095C9.90625 10.2288 14.2097 5.93286 19.4993 5.93286C24.7889 5.93286 29.0923 10.2289 29.0923 15.5095C29.0923 20.7901 24.7889 25.0863 19.4993 25.0863Z" fill="white"/>
<path d="M30.5644 4.62624C27.6878 1.71031 23.8484 0.0679657 19.7533 0.00200088C15.5977 -0.064421 11.6494 1.52483 8.63882 4.47877C5.63673 7.42434 3.97679 11.3257 3.96491 15.4641C3.95493 18.9288 5.06415 22.2088 7.17243 24.9494C9.21346 27.6023 12.1052 29.5559 15.3151 30.4499C15.995 30.6392 16.5723 31.0935 16.899 31.6959L16.9841 31.8527C14.9807 32.4576 13.6927 33.7516 13.6927 35.2473C13.6927 37.3517 16.2426 39 19.4977 39C22.7529 39 25.3028 37.3517 25.3028 35.2473C25.3028 33.7526 24.0145 32.458 22.0113 31.853L22.0968 31.6954C22.4237 31.0925 22.9955 30.64 23.6658 30.454C26.872 29.5643 29.7628 27.6174 31.8057 24.9719C33.9154 22.2398 35.0306 18.9677 35.0306 15.5094C35.0306 11.4109 33.4445 7.54583 30.5644 4.62624ZM23.7793 35.2473C23.7793 36.3017 22.0209 37.4766 19.4977 37.4766C16.9745 37.4766 15.2161 36.3017 15.2161 35.2473C15.2161 34.408 16.2479 33.5971 17.7297 33.2279L18.8281 35.2537C18.9613 35.4993 19.2183 35.6523 19.4977 35.6523C19.7771 35.6523 20.0341 35.4992 20.1674 35.2537L21.2658 33.2279C22.7471 33.5973 23.7793 34.4087 23.7793 35.2473ZM23.2584 28.9861C22.1919 29.282 21.2805 30.0049 20.7575 30.9692L19.4977 33.2925L18.2383 30.9698C17.7158 30.0064 16.7993 29.282 15.7239 28.9824C9.67932 27.2987 5.4703 21.7415 5.48827 15.4684C5.49901 11.7408 6.99678 8.22414 9.70568 5.5662C12.3683 2.95381 15.8389 1.52346 19.5016 1.52346C19.5771 1.52346 19.653 1.52407 19.7287 1.52529C27.3261 1.64769 33.5072 7.92098 33.5072 15.5095C33.5072 21.7698 29.2927 27.3116 23.2584 28.9861Z" fill="white"/>
</g>
<defs>
<clipPath id="clip0">
<rect width="39" height="39" fill="white"/>
</clipPath>
</defs>
</svg>