<svg width="27" height="28" viewBox="0 0 27 28" fill="none" xmlns="http://www.w3.org/2000/svg">
<path d="M25.056 1.14538C24.4818 0.945913 23.8572 0.945913 23.2832 1.14538L1.89926 8.58279C0.49003 9.07218 -0.255562 10.6113 0.233827 12.0205C0.483203 12.7385 1.02355 13.3183 1.72229 13.6174L10.4915 17.3749L14.2497 26.1448C14.842 27.5177 16.4352 28.1506 17.8081 27.5582C18.1185 27.4243 18.4011 27.2334 18.6413 26.9954C18.9305 26.7061 19.1508 26.3553 19.2856 25.9691L26.721 4.58333C27.2106 3.17415 26.4651 1.63491 25.056 1.14538ZM17.5832 25.3757C17.4199 25.8454 16.9068 26.0938 16.4371 25.9306C16.1978 25.8474 16.0046 25.6672 15.9049 25.4343L12.2448 16.8949L24.953 4.18668L17.5832 25.3757ZM10.9715 15.6216L2.43214 11.9614C2.08745 11.8198 1.86971 11.476 1.88907 11.1039C1.89392 10.7298 2.1367 10.4004 2.49261 10.2852L23.6797 2.91339L10.9715 15.6216Z" fill="white"/>
</svg>
