<svg width="44" height="41" viewBox="0 0 44 41" fill="none" xmlns="http://www.w3.org/2000/svg">
<path d="M39.5451 31.6381V26.3896H22.7745V23.2488C24.9066 22.8746 26.5311 21.0485 26.5311 18.855C26.5311 16.6615 24.9066 14.8354 22.7745 14.4611V9.10744H32.0989V2.20835H22.7745V0.5H21.1645V14.4611C19.0323 14.8354 17.4078 16.6615 17.4078 18.855C17.4078 21.0485 19.0323 22.8746 21.1645 23.2488V26.3896H4.05839V31.6381C1.92623 32.0124 0.301758 33.8385 0.301758 36.032C0.301758 38.4957 2.34805 40.5 4.86338 40.5C7.37871 40.5 9.425 38.4957 9.425 36.032C9.425 33.838 7.80053 32.0124 5.66837 31.6381V27.9665H21.1645V31.6381C19.0323 32.0124 17.4078 33.8385 17.4078 36.032C17.4078 38.4957 19.4541 40.5 21.9695 40.5C24.4848 40.5 26.5311 38.4957 26.5311 36.032C26.5311 33.838 24.9066 32.0124 22.7745 31.6381V27.9665H37.9351V31.6381C35.803 32.0124 34.1785 33.8385 34.1785 36.032C34.1785 38.4957 36.2248 40.5 38.7401 40.5C41.2555 40.5 43.3018 38.4957 43.3018 36.032C43.3018 33.838 41.6773 32.0124 39.5451 31.6381ZM22.8249 3.78528H30.489V7.5305H22.8249V3.78528ZM19.0178 18.855C19.0178 17.2612 20.3423 15.9639 21.9695 15.9639C23.5966 15.9639 24.9211 17.2612 24.9211 18.855C24.9211 20.4487 23.5966 21.746 21.9695 21.746C20.3423 21.746 19.0178 20.4487 19.0178 18.855ZM7.81502 36.032C7.81502 37.6258 6.49054 38.9231 4.86338 38.9231C3.23622 38.9231 1.91174 37.6258 1.91174 36.032C1.91174 34.4383 3.23622 33.141 4.86338 33.141C6.49054 33.141 7.81502 34.4383 7.81502 36.032ZM24.9211 36.032C24.9211 37.6258 23.5966 38.9231 21.9695 38.9231C20.3423 38.9231 19.0178 37.6258 19.0178 36.032C19.0178 34.4383 20.3423 33.141 21.9695 33.141C23.5966 33.141 24.9211 34.4383 24.9211 36.032ZM38.7401 38.9231C37.113 38.9231 35.7885 37.6258 35.7885 36.032C35.7885 34.4383 37.113 33.141 38.7401 33.141C40.3673 33.141 41.6918 34.4383 41.6918 36.032C41.6918 37.6258 40.3673 38.9231 38.7401 38.9231Z" fill="white"/>
</svg>
