<svg width="41" height="38" viewBox="0 0 41 38" fill="none" xmlns="http://www.w3.org/2000/svg">
<path d="M12.5548 22.4816H36.1303L40.3017 7.5918H34.1629L31.9588 0.783618L22.7671 3.76323L24.0242 7.5918H23.5915L21.3221 0.783618L12.1303 3.76323L13.3874 7.5918H8.47314L7.45277 3.51016C6.93846 1.46934 5.15887 0.0244751 3.10989 0.0244751H0.301758V1.73057H3.10989C4.38334 1.73057 5.49354 2.57954 5.83643 3.86121L10.3507 21.5265C9.4201 22.1959 8.80787 23.2898 8.80787 24.5388C8.80787 26.5796 10.514 28.2857 12.5548 28.2857H35.5344V26.5796H12.5548C11.4446 26.5796 10.514 25.6408 10.514 24.5388C10.514 23.4204 11.4528 22.4816 12.5548 22.4816ZM30.8569 2.9061L32.3915 7.50204H25.7548L24.816 4.86533L30.8569 2.9061ZM20.2201 2.9061L21.7548 7.50204H15.1181L14.1793 4.86533L20.2201 2.9061ZM38.0895 9.20814L34.8568 20.7837H11.8772L8.89763 9.20821L38.0895 9.20814Z" fill="white"/>
<path d="M28.0484 30.8245C26.0892 30.8245 24.4729 32.4408 24.4729 34.4C24.4729 36.3591 26.0892 37.9755 28.0484 37.9755C30.0892 37.9755 31.6239 36.3591 31.6239 34.4C31.624 32.4408 30.0076 30.8245 28.0484 30.8245ZM28.0484 36.3591C26.9382 36.3591 26.0892 35.4204 26.0892 34.4C26.0892 33.2898 27.028 32.4408 28.0484 32.4408C29.1586 32.4408 30.0076 33.2898 30.0076 34.4C30.0076 35.5102 29.0688 36.3591 28.0484 36.3591Z" fill="white"/>
<path d="M14.9393 30.8245C12.9802 30.8245 11.3638 32.4408 11.3638 34.4C11.3638 36.3591 12.9802 37.9755 14.9393 37.9755C16.8985 37.9755 18.5148 36.3591 18.5148 34.4C18.5148 32.4408 16.8985 30.8245 14.9393 30.8245ZM14.9393 36.3591C13.8291 36.3591 12.9802 35.4204 12.9802 34.4C12.9802 33.2898 13.919 32.4408 14.9393 32.4408C15.9597 32.4408 16.8985 33.2898 16.8985 34.4C16.8985 35.5102 15.9597 36.3591 14.9393 36.3591Z" fill="white"/>
</svg>
