<svg width="42" height="43" viewBox="0 0 42 43" fill="none" xmlns="http://www.w3.org/2000/svg">
<path fill-rule="evenodd" clip-rule="evenodd" d="M20.8002 14.5C20.4117 14.5 20.076 14.8048 19.9763 15.1804C19.224 18.0146 15.4003 26.6227 12.8847 30.8904C12.7215 31.1605 12.8031 31.5077 13.0479 31.7392C15.5367 33.7454 16.1487 35.713 16.3119 36.716H15.3735C14.9655 36.716 14.6391 37.0247 14.6391 37.4105L13.689 41.5865C13.6558 41.7321 13.6271 41.8851 13.6764 42.0261C13.773 42.3025 14.0472 42.5 14.3735 42.5H27.2262C27.5525 42.5 27.8266 42.3025 27.9233 42.0261C27.9726 41.8851 27.9438 41.7321 27.9107 41.5865L26.9606 37.4105C26.9606 37.0247 26.6342 36.716 26.2262 36.716H25.2878C25.451 35.713 26.063 33.7454 28.5517 31.7392C28.7965 31.5463 28.8781 31.1605 28.7149 30.8904C26.2017 26.6266 22.3826 17.9988 21.6254 15.1793C21.5247 14.8043 21.1885 14.5 20.8002 14.5ZM21.7382 29.4244C21.7382 28.9228 21.3302 28.537 20.7998 28.537C20.3102 28.537 19.8614 28.9614 19.8614 29.4244C19.8614 29.9259 20.2694 30.3117 20.7998 30.3117C21.3302 30.3117 21.7382 29.9259 21.7382 29.4244ZM15.3735 41.0725H26.2262L25.5326 38.0278H16.1079L15.3735 41.0725ZM17.7399 36.6775H23.8598C24.023 35.5586 24.635 33.321 27.2053 31.0448C26.2262 29.3086 21.7998 21.0648 21.5342 18V27.3025C22.4726 27.6111 23.1662 28.4213 23.1662 29.4244C23.1662 30.659 22.1054 31.662 20.7998 31.662C19.4942 31.662 18.4335 30.659 18.4335 29.4244C18.4335 28.4213 19.1271 27.5725 20.0654 27.3025V18C18.7998 22.5262 15.3735 29.3472 14.3943 31.0448C16.9647 33.321 17.5767 35.5586 17.7399 36.6775Z" fill="white"/>
<path fill-rule="evenodd" clip-rule="evenodd" d="M38.5426 17.383C36.975 7.45524 29.6172 3.7856 23.9016 3.01822L23.702 4.50489C28.9863 5.21434 35.6285 8.5447 37.0609 17.6169L38.5426 17.383ZM9.62116 7.98937C12.0653 6.04527 15.0568 5.03118 17.9273 4.54379L17.6762 3.06495C14.6535 3.57819 11.3949 4.6619 8.68742 6.81544C5.96321 8.98227 3.84179 12.1977 3.06196 16.8767L4.54155 17.1233C5.26173 12.8022 7.19368 9.92019 9.62116 7.98937Z" fill="white"/>
<path fill-rule="evenodd" clip-rule="evenodd" d="M19.3018 0H22.3018C23.4063 0 24.3018 0.895431 24.3018 2V5C24.3018 6.10457 23.4063 7 22.3018 7H19.3018C18.1972 7 17.3018 6.10457 17.3018 5V2C17.3018 0.895431 18.1972 0 19.3018 0ZM19.3018 1.5C19.0256 1.5 18.8018 1.72386 18.8018 2V5C18.8018 5.27614 19.0256 5.5 19.3018 5.5H22.3018C22.5779 5.5 22.8018 5.27614 22.8018 5V2C22.8018 1.72386 22.5779 1.5 22.3018 1.5H19.3018Z" fill="white"/>
<path fill-rule="evenodd" clip-rule="evenodd" d="M2.30176 16H5.30176C6.40633 16 7.30176 16.8954 7.30176 18V21C7.30176 22.1046 6.40633 23 5.30176 23H2.30176C1.19719 23 0.301758 22.1046 0.301758 21V18C0.301758 16.8954 1.19719 16 2.30176 16ZM2.30176 17.5C2.02562 17.5 1.80176 17.7239 1.80176 18V21C1.80176 21.2761 2.02562 21.5 2.30176 21.5H5.30176C5.5779 21.5 5.80176 21.2761 5.80176 21V18C5.80176 17.7239 5.5779 17.5 5.30176 17.5H2.30176Z" fill="white"/>
<path fill-rule="evenodd" clip-rule="evenodd" d="M36.3018 16H39.3018C40.4063 16 41.3018 16.8954 41.3018 18V21C41.3018 22.1046 40.4063 23 39.3018 23H36.3018C35.1972 23 34.3018 22.1046 34.3018 21V18C34.3018 16.8954 35.1972 16 36.3018 16ZM36.3018 17.5C36.0256 17.5 35.8018 17.7239 35.8018 18V21C35.8018 21.2761 36.0256 21.5 36.3018 21.5H39.3018C39.5779 21.5 39.8018 21.2761 39.8018 21V18C39.8018 17.7239 39.5779 17.5 39.3018 17.5H36.3018Z" fill="white"/>
</svg>
