<svg width="41" height="38" viewBox="0 0 41 38" fill="none" xmlns="http://www.w3.org/2000/svg">
<g clip-path="url(#clip0_201_129)">
<path d="M23.8955 2.96875C23.4643 2.96875 23.1143 3.30128 23.1143 3.71094C23.1143 4.12059 23.4643 4.45312 23.8955 4.45312C24.3267 4.45312 24.6768 4.12059 24.6768 3.71094C24.6768 3.30128 24.3267 2.96875 23.8955 2.96875Z" fill="white"/>
<path d="M30.1455 2.96875H27.0205C26.589 2.96875 26.2393 3.30099 26.2393 3.71094C26.2393 4.12088 26.589 4.45312 27.0205 4.45312H30.1455C30.577 4.45312 30.9268 4.12088 30.9268 3.71094C30.9268 3.30099 30.577 2.96875 30.1455 2.96875Z" fill="white"/>
<path d="M36.3955 2.96875H33.2705C32.839 2.96875 32.4893 3.30099 32.4893 3.71094C32.4893 4.12088 32.839 4.45312 33.2705 4.45312H36.3955C36.827 4.45312 37.1768 4.12088 37.1768 3.71094C37.1768 3.30099 36.827 2.96875 36.3955 2.96875Z" fill="white"/>
<path d="M37.958 0H2.64551C1.35309 0 0.301758 0.998764 0.301758 2.22656V35.7734C0.301758 37.0012 1.35309 38 2.64551 38H37.958C39.2504 38 40.3018 37.0012 40.3018 35.7734V2.22656C40.3018 0.998764 39.2504 0 37.958 0ZM38.7393 35.7734C38.7393 36.1828 38.3889 36.5156 37.958 36.5156H2.64551C2.2146 36.5156 1.86426 36.1828 1.86426 35.7734V7.42188H38.7393V35.7734ZM38.7393 5.9375H1.86426V2.22656C1.86426 1.8172 2.2146 1.48438 2.64551 1.48438H37.958C38.3889 1.48438 38.7393 1.8172 38.7393 2.22656V5.9375Z" fill="white"/>
<path d="M6.23926 16.7734H34.3643C34.7958 16.7734 35.1455 16.4412 35.1455 16.0312V11.5781C35.1455 11.1682 34.7958 10.8359 34.3643 10.8359H6.23926C5.80774 10.8359 5.45801 11.1682 5.45801 11.5781V16.0312C5.45801 16.4412 5.80774 16.7734 6.23926 16.7734ZM7.02051 12.3203H33.583V15.2891H7.02051V12.3203Z" fill="white"/>
<path d="M6.23926 33.3242H15.6143C16.0458 33.3242 16.3955 32.992 16.3955 32.582V20.707C16.3955 20.2971 16.0458 19.9648 15.6143 19.9648H6.23926C5.80774 19.9648 5.45801 20.2971 5.45801 20.707V32.582C5.45801 32.992 5.80774 33.3242 6.23926 33.3242ZM7.02051 21.4492H14.833V31.8398H7.02051V21.4492Z" fill="white"/>
<path d="M34.3643 19.9648H20.3018C20.2941 19.9648 20.2868 19.9657 20.2792 19.966C19.8504 19.9776 19.5205 20.3136 19.5205 20.707V32.582C19.5205 32.5864 19.5211 32.5907 19.5211 32.5951C19.5287 33.0047 19.8828 33.3242 20.3018 33.3242H34.3643C34.7854 33.3242 35.1373 33.0036 35.1449 32.5951C35.1449 32.5907 35.1455 32.5864 35.1455 32.582V20.707C35.1455 20.3017 34.7976 19.9648 34.3643 19.9648ZM32.3095 21.4492L27.333 25.6516L22.3565 21.4492H32.3095ZM21.083 22.3598L26.1572 26.6445L21.083 30.9292V22.3598ZM22.3565 31.8398L27.333 27.6375L32.3095 31.8398H22.3565ZM33.583 30.9292L28.5089 26.6445L33.583 22.3598V30.9292Z" fill="white"/>
</g>
<defs>
<clipPath id="clip0_201_129">
<rect width="40" height="38" fill="white" transform="translate(0.301758)"/>
</clipPath>
</defs>
</svg>
