<svg width="36" height="35" viewBox="0 0 36 35" fill="none" xmlns="http://www.w3.org/2000/svg">
<path d="M3.46094 21.5833C5.22421 21.5833 6.62013 20.1979 6.62013 18.4479C6.62013 17.7188 6.32625 17.0625 5.9589 16.5521L11.5426 10.6458C11.9834 10.8646 12.4242 10.9375 12.9385 10.9375C13.8201 10.9375 14.5548 10.5729 15.1426 10.0625L21.6079 13.125C21.5344 13.4167 21.4609 13.7812 21.4609 14.0729C21.4609 15.8229 22.8569 17.2083 24.6201 17.2083C26.3834 17.2083 27.7793 15.8229 27.7793 14.0729C27.7793 13.2708 27.4854 12.4688 26.8977 11.9583L31.4528 6.05208C31.7467 6.19792 32.114 6.27083 32.4813 6.27083C34.2446 6.27083 35.6405 4.88542 35.6405 3.13542C35.6405 1.38542 34.1711 0 32.4079 0C30.6446 0 29.2487 1.38542 29.2487 3.13542C29.2487 3.9375 29.616 4.73958 30.1303 5.25L25.6487 11.1562C25.2813 11.0104 24.9875 10.9375 24.6201 10.9375C23.7385 10.9375 23.0038 11.3021 22.416 11.8125L15.8773 8.75C15.9507 8.45833 16.0242 8.09375 16.0242 7.80208C16.0242 6.05208 14.6283 4.66667 12.865 4.66667C11.1018 4.66667 9.70584 6.05208 9.70584 7.80208C9.70584 8.53125 9.92625 9.11458 10.3671 9.69792L4.78339 15.6042C4.34257 15.4583 3.90176 15.3125 3.46094 15.3125C1.69768 15.3125 0.301758 16.6979 0.301758 18.4479C0.301758 20.1979 1.69768 21.5833 3.46094 21.5833ZM32.4079 1.45833C33.363 1.45833 34.0977 2.1875 34.0977 3.13542C34.0977 4.08333 33.363 4.8125 32.4079 4.8125C31.4528 4.8125 30.7181 4.08333 30.7181 3.13542C30.7181 2.1875 31.5262 1.45833 32.4079 1.45833ZM24.5467 12.4688C25.5018 12.4688 26.2365 13.1979 26.2365 14.1458C26.2365 15.0938 25.5018 15.8229 24.5467 15.8229C23.5916 15.8229 22.8569 15.0938 22.8569 14.1458C22.8569 13.1979 23.665 12.4688 24.5467 12.4688ZM12.865 6.19792C13.8201 6.19792 14.5548 6.92708 14.5548 7.875C14.5548 8.82292 13.8201 9.55208 12.865 9.55208C11.9099 9.55208 11.1752 8.82292 11.1752 7.875C11.1752 6.92708 11.9099 6.19792 12.865 6.19792ZM3.46094 16.7708C4.41604 16.7708 5.15074 17.5 5.15074 18.4479C5.15074 19.3958 4.41604 20.125 3.46094 20.125C2.50584 20.125 1.77115 19.3958 1.77115 18.4479C1.77115 17.5 2.50584 16.7708 3.46094 16.7708Z" fill="white"/>
<path d="M34.8324 15.8229H29.616C29.1752 15.8229 28.8813 16.1146 28.8813 16.5521V33.5417H26.3099V20.8542C26.3099 20.4167 26.016 20.125 25.5752 20.125H20.3589C19.9181 20.125 19.6242 20.4167 19.6242 20.8542V33.5417H16.1711V25.1563C16.1711 24.7188 15.8773 24.4271 15.4365 24.4271H10.2201C9.77931 24.4271 9.48543 24.7188 9.48543 25.1563V33.5417H6.98747V28.7292C6.98747 28.2917 6.69359 28 6.25278 28H1.03645C0.595635 28 0.301758 28.2917 0.301758 28.7292V34.2709C0.301758 34.7084 0.595635 35 1.03645 35H34.8324C35.2732 35 35.5671 34.7084 35.5671 34.2709V16.5521C35.5671 16.1146 35.2732 15.8229 34.8324 15.8229ZM5.51808 33.5417H1.77115V29.4584H5.51808V33.5417ZM14.7752 33.5417H11.0283V25.8854H14.7752V33.5417ZM24.8405 33.5417H21.0936V21.5834H24.8405V33.5417ZM34.0977 33.5417H30.3507V17.2813H34.0977V33.5417Z" fill="white"/>
</svg>
