<svg width="20" height="21" viewBox="0 0 20 21" fill="none" xmlns="http://www.w3.org/2000/svg">
<g clip-path="url(#clip0_206_231)">
<path d="M10.0025 0.445801H9.9975C4.48375 0.445801 0 4.9308 0 10.4458C0 12.6333 0.705 14.6608 1.90375 16.3071L0.6575 20.0221L4.50125 18.7933C6.0825 19.8408 7.96875 20.4458 10.0025 20.4458C15.5162 20.4458 20 15.9596 20 10.4458C20 4.93205 15.5162 0.445801 10.0025 0.445801Z" fill="#559F5C"/>
<path d="M15.82 14.5671C15.5787 15.2483 14.6212 15.8133 13.8575 15.9783C13.335 16.0896 12.6525 16.1783 10.355 15.2258C7.41622 14.0083 5.52372 11.0221 5.37622 10.8283C5.23497 10.6346 4.18872 9.24709 4.18872 7.81209C4.18872 6.37709 4.91747 5.67834 5.21122 5.37834C5.45247 5.13209 5.85122 5.01959 6.23372 5.01959C6.35747 5.01959 6.46872 5.02584 6.56872 5.03084C6.86247 5.04334 7.00997 5.06084 7.20372 5.52459C7.44497 6.10584 8.03247 7.54084 8.10247 7.68834C8.17372 7.83584 8.24497 8.03584 8.14497 8.22959C8.05122 8.42959 7.96872 8.51834 7.82122 8.68834C7.67372 8.85834 7.53372 8.98834 7.38622 9.17084C7.25122 9.32959 7.09872 9.49959 7.26872 9.79334C7.43872 10.0808 8.02622 11.0396 8.89122 11.8096C10.0075 12.8033 10.9125 13.1208 11.2362 13.2558C11.4775 13.3558 11.765 13.3321 11.9412 13.1446C12.165 12.9033 12.4412 12.5033 12.7225 12.1096C12.9225 11.8271 13.175 11.7921 13.44 11.8921C13.71 11.9858 15.1387 12.6921 15.4325 12.8383C15.7262 12.9858 15.92 13.0558 15.9912 13.1796C16.0612 13.3033 16.0612 13.8846 15.82 14.5671Z" fill="white"/>
</g>
<defs>
<clipPath id="clip0_206_231">
<rect width="20" height="20" fill="white" transform="translate(0 0.445801)"/>
</clipPath>
</defs>
</svg>
