<svg width="80" height="80" viewBox="0 0 80 80" fill="none" xmlns="http://www.w3.org/2000/svg">
<path d="M79.5065 54.1423L70.8434 45.4847C70.189 44.8346 69.1328 44.8391 68.4839 45.4944C67.8349 46.1497 67.8394 47.2078 68.4936 47.8577L77.1566 56.5153C77.4819 56.8386 77.9067 57 78.3314 57C78.7606 57 79.1898 56.8351 79.5159 56.5056C80.1651 55.8503 80.1607 54.7922 79.5065 54.1423Z" fill="#363636"/>
<path d="M58.4278 53.8506L74.2076 37.9952C76.5975 35.5937 76.5975 31.6862 74.2075 29.2846C73.3647 28.4378 72.3354 27.8911 71.2513 27.6415C71.6231 26.8385 71.8199 25.9572 71.8199 25.0452C71.8199 23.4 71.1822 21.8533 70.0246 20.6901C69.1166 19.7776 67.9734 19.1884 66.7327 18.9761C67.4312 16.8377 66.9375 14.3886 65.2482 12.6914C64.3194 11.7583 63.1643 11.1897 61.9587 10.9818C62.1607 10.3659 62.2672 9.71552 62.2672 9.04815C62.2672 7.40291 61.6295 5.85621 60.4719 4.69304C59.3141 3.52987 57.7748 2.88913 56.1376 2.88913C55.0979 2.88913 54.0982 3.1483 53.2101 3.63495L53.0531 3.46549C51.0134 1.26301 48.1262 0 45.1323 0H32.3592C31.461 0 30.7326 0.731924 30.7326 1.63445V3.77777C30.7326 4.63552 30.877 5.47056 31.1531 6.25575C30.4174 5.9487 29.6213 5.78741 28.8007 5.78741C27.1633 5.78741 25.624 6.42815 24.4662 7.59132C22.7761 9.2895 22.2829 11.7404 22.983 13.8794C21.7764 14.0868 20.6196 14.6558 19.69 15.5897C18.5324 16.753 17.8947 18.2997 17.8947 19.9448C17.8947 20.6109 18.0009 21.2603 18.2021 21.8749C16.9629 22.0878 15.8209 22.6767 14.9137 23.5884C13.0472 25.4639 12.6385 28.2582 13.6876 30.5361C12.5767 30.7911 11.5563 31.3533 10.7305 32.1829C8.34061 34.5843 8.34061 38.4918 10.7305 40.8933L13.9756 44.1539L2.47643 55.6947C1.84119 56.333 1.84119 57.3679 2.47643 58.0064C2.79405 58.3253 3.21039 58.4852 3.62656 58.4852C4.04274 58.4852 4.45907 58.3255 4.77669 58.0064L16.4301 46.3103C17.3433 46.8338 18.3795 47.1139 19.4596 47.1139C21.0968 47.1139 22.6361 46.4732 23.7939 45.3098C25.0517 44.0462 25.6466 42.3652 25.5804 40.7062C25.6628 40.7096 25.7453 40.7121 25.8278 40.7121C27.3972 40.7119 28.9674 40.1115 30.1621 38.9111C31.3197 37.7478 31.9573 36.2011 31.9573 34.556C31.9573 34.4728 31.9546 34.3901 31.9513 34.3075C32.0328 34.3107 32.1143 34.3133 32.1959 34.3133C33.7655 34.3133 35.3354 33.713 36.5302 32.5124C37.6878 31.349 38.3255 29.8023 38.3255 28.1573C38.3255 28.0741 38.3228 27.9914 38.3195 27.9087C38.401 27.912 38.4825 27.9146 38.5641 27.9146C40.1338 27.9146 41.7035 27.3142 42.8984 26.1136C45.144 23.8572 45.2792 20.2715 43.305 17.8544L54.1027 7.00484C54.6461 6.45871 55.3682 6.1582 56.1366 6.1582C56.9051 6.1582 57.6273 6.45871 58.1707 7.00484C58.714 7.5508 59.0131 8.27635 59.0131 9.04847C59.0131 9.82043 58.714 10.5463 58.1705 11.0921L56.5785 12.6918L50.8021 18.4958C50.1669 19.1341 50.1669 20.169 50.8021 20.8075C51.1198 21.1264 51.5361 21.2863 51.9523 21.2863C52.3684 21.2863 52.7848 21.1266 53.1024 20.8075L58.8788 15.0034C60.0001 13.8765 61.825 13.8763 62.9467 15.0032C64.0682 16.1303 64.0682 17.9638 62.9467 19.0908L61.3545 20.6906L57.1703 24.8949C56.5351 25.5332 56.5351 26.5681 57.1703 27.2065C57.4879 27.5255 57.9043 27.6853 58.3204 27.6853C58.7366 27.6853 59.153 27.5257 59.4706 27.2065L63.6548 23.0023C64.1981 22.4561 64.9204 22.1556 65.6886 22.1556C66.4571 22.1556 67.1793 22.4561 67.7227 23.0023C68.266 23.5482 68.5651 24.2738 68.5651 25.0459C68.5651 25.8179 68.266 26.5437 67.7225 27.0895L65.5372 29.2853L63.5383 31.2938C62.9031 31.9321 62.9031 32.967 63.5383 33.6054C63.8559 33.9244 64.2723 34.0842 64.6885 34.0842C65.1046 34.0842 65.521 33.9246 65.8386 33.6054L67.839 31.5955C68.9606 30.4704 70.7844 30.4705 71.9054 31.5969C73.0271 32.7238 73.0271 34.5575 71.9054 35.6845L56.1256 51.5399C52.1632 55.5215 46.897 57.8264 41.2971 58.0307C40.8855 58.0457 40.4945 58.2171 40.2038 58.5106L25.6267 73.2119C24.9926 73.8513 24.9944 74.8862 25.631 75.5233C25.9483 75.841 26.3636 76 26.779 76C27.1961 76 27.6136 75.8397 27.9312 75.5191L38.6531 64.7061C41.3765 66.4616 44.5794 67.2963 47.8361 67.08L56.2275 75.5119C56.5452 75.8309 56.9615 75.9907 57.3777 75.9907C57.794 75.9907 58.2102 75.831 58.5278 75.5119C59.163 74.8736 59.163 73.8387 58.5278 73.2003L49.6058 64.2345C49.268 63.8952 48.7987 63.7219 48.3227 63.7611L47.8069 63.8036C45.4265 63.9997 43.0736 63.4757 41.0192 62.319L42.0646 61.2648C48.2472 60.8816 54.0356 58.264 58.4278 53.8506ZM21.4936 42.9985C20.9503 43.5447 20.2279 43.8452 19.4597 43.8452C18.6913 43.8452 17.9691 43.5447 17.4259 42.9985L13.0306 38.5823C11.9091 37.4554 11.9091 35.6218 13.0306 34.4947C13.5739 33.9486 14.2963 33.6481 15.0646 33.6481C15.8329 33.6481 16.5553 33.9486 17.0985 34.4947L21.4938 38.9109C22.6151 40.0378 22.6151 41.8715 21.4936 42.9985ZM27.8621 36.5995C26.7404 37.7264 24.9152 37.7264 23.794 36.5995L19.3988 32.1831L17.2133 29.9872C16.0918 28.8603 16.0918 27.0266 17.2133 25.8997C17.7567 25.3536 18.4791 25.0531 19.2472 25.0531C20.0156 25.0531 20.7379 25.3536 21.2811 25.8997L27.8616 32.5119C28.4051 33.058 28.7044 33.7837 28.7044 34.5557C28.7044 35.3276 28.4053 36.0535 27.8621 36.5995ZM34.2303 30.2006C33.1086 31.3273 31.2836 31.3275 30.1622 30.2006L21.9895 21.9886C21.4461 21.4426 21.147 20.7171 21.147 19.945C21.147 19.173 21.4461 18.4471 21.9896 17.9013C22.5504 17.3379 23.2871 17.0562 24.0235 17.0562C24.7596 17.0562 25.4955 17.3376 26.0561 17.9L29.781 21.6428L34.23 26.1131C34.7732 26.6591 35.0724 27.3846 35.0724 28.1568C35.0727 28.9289 34.7736 29.6548 34.2303 30.2006ZM40.5986 23.8017C39.4771 24.9286 37.6522 24.9286 36.5307 23.8017L28.358 15.5897L28.3552 15.5871L26.7658 13.9901C25.6443 12.863 25.6443 11.0295 26.7658 9.90246C27.3266 9.33886 28.0633 9.05713 28.7999 9.05713C29.5364 9.05713 30.2731 9.33886 30.8337 9.90246L40.5983 19.7139C41.1418 20.2599 41.4409 20.9856 41.4409 21.7575C41.4411 22.5298 41.1421 23.2559 40.5986 23.8017ZM41.0263 15.5212L36.5585 11.032C37.0651 11.1406 37.586 11.1983 38.1162 11.1982C38.1281 11.1982 38.1401 11.1982 38.1522 11.1982L42.6161 11.1771C43.5143 11.1728 44.2393 10.4376 44.2351 9.53495C44.2308 8.63487 43.5034 7.90818 42.6086 7.90818C42.606 7.90818 42.6034 7.90818 42.6008 7.90818L38.1369 7.92926C38.13 7.92926 38.1235 7.92926 38.1167 7.92926C37.0168 7.92926 35.9823 7.5003 35.2023 6.72033C34.4175 5.9353 33.9854 4.89044 33.9854 3.7776V3.26874H45.1318C47.2257 3.26874 49.2448 4.15198 50.6714 5.69231L50.7376 5.76372L41.0263 15.5212Z" fill="#363636"/>
<path d="M30.3422 69.7851L23.0256 77.3165C22.9488 77.3956 22.8224 77.3974 22.7434 77.3205L2.68243 57.8178C2.60342 57.741 2.60162 57.6147 2.6784 57.5356L10.2857 49.705C10.3633 49.6251 10.4913 49.6242 10.5701 49.7031L30.3403 69.5051C30.4173 69.5822 30.4182 69.7069 30.3422 69.7851Z" stroke="#D91611" stroke-width="3.59224"/>
<path d="M66 60.5C66 61.1922 66.2053 61.8689 66.5899 62.4445C66.9744 63.0201 67.5211 63.4687 68.1606 63.7336C68.8001 63.9985 69.5039 64.0678 70.1828 63.9327C70.8617 63.7977 71.4854 63.4644 71.9749 62.9749C72.4644 62.4854 72.7977 61.8618 72.9327 61.1828C73.0678 60.5039 72.9985 59.8001 72.7336 59.1606C72.4687 58.5211 72.0201 57.9744 71.4445 57.5899C70.8689 57.2053 70.1922 57 69.5 57C68.5721 57.001 67.6824 57.3701 67.0263 58.0263C66.3701 58.6824 66.001 59.5721 66 60.5ZM69.5 59.2234C69.7525 59.2234 69.9993 59.2983 70.2092 59.4385C70.4192 59.5788 70.5828 59.7782 70.6794 60.0115C70.776 60.2447 70.8013 60.5014 70.7521 60.7491C70.7028 60.9967 70.5812 61.2242 70.4027 61.4027C70.2242 61.5812 69.9967 61.7028 69.7491 61.7521C69.5014 61.8013 69.2447 61.776 69.0115 61.6794C68.7782 61.5828 68.5788 61.4192 68.4385 61.2092C68.2983 60.9993 68.2234 60.7525 68.2234 60.5C68.224 60.1616 68.3587 59.8373 68.598 59.5981C68.8373 59.3589 69.1616 59.2243 69.5 59.2238V59.2234Z" fill="#D91611"/>
</svg>
