<svg width="83" height="82" viewBox="0 0 83 82" fill="none" xmlns="http://www.w3.org/2000/svg">
<path d="M12.2508 75H1.75012C0.784053 75 0 74.2384 0 73.3V42.7C0 41.7616 0.784053 41 1.75012 41C13.6544 41 19.9444 44.8964 20.2069 45.063C20.8334 45.4608 21.1309 46.202 20.9454 46.9058L13.9449 73.7182C13.7524 74.473 13.0524 75 12.2508 75ZM3.50024 71.6H10.8892L17.2177 47.358C15.2505 46.44 10.6092 44.6856 3.50024 44.4306V71.6Z" fill="white"/>
<path d="M44.775 82C36.5745 82 20.719 75.2849 11.9973 71.2775C11.1286 70.8815 10.7568 69.8695 11.1668 69.0268C11.5734 68.1772 12.6123 67.8218 13.4776 68.2178C20.2881 71.3452 36.9706 78.6154 44.775 78.6154C53.2291 78.6154 73.1466 68.9455 78.8766 66.072C77.9731 64.9212 76.1072 63.3846 72.5733 63.3846C69.3661 63.3846 65.3006 64.6335 61.3671 65.8452C57.1869 67.128 52.8608 68.4615 49.1185 68.4615C41.9465 68.4615 32.4186 65.1175 32.019 64.9754C31.1156 64.6572 30.65 63.6858 30.9801 62.8058C31.3067 61.9258 32.3074 61.4723 33.2074 61.7938C33.2978 61.8277 42.5615 65.0769 49.1185 65.0769C52.3257 65.0769 56.3912 63.828 60.3247 62.6163C64.5048 61.3335 68.831 60 72.5733 60C80.6835 60 82.8205 65.9806 82.9108 66.2345C83.1784 67.0163 82.8274 67.8726 82.0803 68.2652C80.9997 68.8203 55.5121 82 44.775 82Z" fill="white"/>
<path d="M57.2759 67C56.3242 67 55.5518 66.2234 55.5518 65.2665V63.5331C55.5518 61.1132 53.9277 59.04 51.607 58.4991L18.3212 50.4178C17.3936 50.1924 16.8247 49.2564 17.0488 48.3238C17.2729 47.3946 18.2074 46.833 19.1315 47.0445L52.4035 55.1224C56.2828 56.0342 59 59.4941 59 63.5331V65.2665C59 66.2234 58.2276 67 57.2759 67Z" fill="white"/>
<path d="M25.7 41C24.7616 41 24 40.2284 24 39.2778V18.6111C24 13.8612 27.8114 10 32.5 10H39.3C40.2384 10 41 10.7716 41 11.7222C41 12.6729 40.2384 13.4444 39.3 13.4444H32.5C29.6882 13.4444 27.4 15.7626 27.4 18.6111V39.2778C27.4 40.2284 26.6384 41 25.7 41Z" fill="#D91611"/>
<path d="M63.8333 20H43.1667C40.3181 20 38 17.7567 38 15V8.33333C38 7.41333 38.7716 6.66667 39.7222 6.66667H45.0611C45.8602 2.86667 49.3426 0 53.5 0C57.6574 0 61.1398 2.86667 61.9389 6.66667H67.2778C68.2284 6.66667 69 7.41333 69 8.33333V15C69 17.7567 66.6819 20 63.8333 20ZM41.4444 10V15C41.4444 15.9167 42.2194 16.6667 43.1667 16.6667H63.8333C64.7806 16.6667 65.5556 15.9167 65.5556 15V10H60.3889C59.4382 10 58.6667 9.25333 58.6667 8.33333C58.6667 5.57667 56.3486 3.33333 53.5 3.33333C50.6514 3.33333 48.3333 5.57667 48.3333 8.33333C48.3333 9.25333 47.5618 10 46.6111 10H41.4444Z" fill="#D91611"/>
<path d="M81.3 54C80.3616 54 79.6 53.2418 79.6 52.3077V18.4615C79.6 15.6625 77.3118 13.3846 74.5 13.3846H67.7C66.7616 13.3846 66 12.6265 66 11.6923C66 10.7582 66.7616 10 67.7 10H74.5C79.1886 10 83 13.7942 83 18.4615V52.3077C83 53.2418 82.2384 54 81.3 54Z" fill="#D91611"/>
<path d="M71.2727 30H36.7273C35.7738 30 35 29.328 35 28.5C35 27.672 35.7738 27 36.7273 27H71.2727C72.2262 27 73 27.672 73 28.5C73 29.328 72.2262 30 71.2727 30Z" fill="#D91611"/>
<path d="M71.2727 41H36.7273C35.7738 41 35 40.328 35 39.5C35 38.672 35.7738 38 36.7273 38H71.2727C72.2262 38 73 38.672 73 39.5C73 40.328 72.2262 41 71.2727 41Z" fill="#D91611"/>
</svg>
