<svg width="75" height="96" viewBox="0 0 75 96" fill="none" xmlns="http://www.w3.org/2000/svg">
<path d="M47.0005 30H44.0005V27C44.0005 26.2044 43.6844 25.4413 43.1218 24.8787C42.5592 24.3161 41.7961 24 41.0005 24C40.2048 24 39.4418 24.3161 38.8792 24.8787C38.3166 25.4413 38.0005 26.2044 38.0005 27V30H35.0005V27C35.0005 25.4087 35.6326 23.8826 36.7578 22.7574C37.8831 21.6321 39.4092 21 41.0005 21C42.5918 21 44.1179 21.6321 45.2431 22.7574C46.3683 23.8826 47.0005 25.4087 47.0005 27V30Z" fill="#363636"/>
<path d="M41.0005 52C39.4092 52 37.8831 51.3913 36.7578 50.3077C35.6326 49.2242 35.0005 47.7546 35.0005 46.2222V39H38.0005V46.2222C38.0005 46.9884 38.3166 47.7232 38.8792 48.265C39.4418 48.8067 40.2048 49.1111 41.0005 49.1111C41.7961 49.1111 42.5592 48.8067 43.1218 48.265C43.6844 47.7232 44.0005 46.9884 44.0005 46.2222V39H47.0005V46.2222C47.0005 47.7546 46.3683 49.2242 45.2431 50.3077C44.1179 51.3913 42.5918 52 41.0005 52Z" fill="#363636"/>
<path d="M32.0005 54C30.4092 54 28.8831 53.3779 27.7578 52.2705C26.6326 51.1632 26.0005 49.6613 26.0005 48.0952V28.9048C26.0005 27.3387 26.6326 25.8368 27.7578 24.7295C28.8831 23.6221 30.4092 23 32.0005 23C33.5918 23 35.1179 23.6221 36.2431 24.7295C37.3683 25.8368 38.0005 27.3387 38.0005 28.9048V30.381H35.0005V28.9048C35.0005 28.1217 34.6844 27.3708 34.1218 26.8171C33.5592 26.2634 32.7961 25.9524 32.0005 25.9524C31.2048 25.9524 30.4418 26.2634 29.8792 26.8171C29.3166 27.3708 29.0005 28.1217 29.0005 28.9048V48.0952C29.0005 48.8783 29.3166 49.6292 29.8792 50.1829C30.4418 50.7366 31.2048 51.0476 32.0005 51.0476C32.7961 51.0476 33.5592 50.7366 34.1218 50.1829C34.6844 49.6292 35.0005 48.8783 35.0005 48.0952V39.2381H38.0005V48.0952C38.0005 49.6613 37.3683 51.1632 36.2431 52.2705C35.1179 53.3779 33.5918 54 32.0005 54Z" fill="#363636"/>
<path d="M47.8948 30L45.0005 29.1891L47.9535 19.0293V5.91891C47.9535 4.34912 48.5881 2.84362 49.7177 1.73361C50.8474 0.623598 52.3795 0 53.977 0C55.5745 0 57.1066 0.623598 58.2362 1.73361C59.3659 2.84362 60.0005 4.34912 60.0005 5.91891V20.7162L59.4938 26.7426C59.4243 27.5696 58.6984 28.1843 57.8712 28.1166C57.041 28.0487 56.4239 27.3194 56.4942 26.4895L56.9933 20.5949L56.9887 5.91891C56.9887 5.13401 56.6714 4.38127 56.1066 3.82626C55.5418 3.27125 54.7758 2.95946 53.977 2.95946C53.1782 2.95946 52.4122 3.27125 51.8474 3.82626C51.2826 4.38127 50.9652 5.13401 50.9652 5.91891V19.2365C50.9655 19.3737 50.9457 19.5102 50.9065 19.6419L47.8948 30Z" fill="#363636"/>
<path d="M52.0801 78H22.4164C22.023 78 21.6458 77.842 21.3676 77.5607C21.0895 77.2794 20.9332 76.8978 20.9332 76.5V67.7715C20.9324 66.8401 20.7181 65.9216 20.3073 65.088L16.7225 57.8385C15.5928 55.5465 15.0034 53.021 15.0005 50.46V48H17.9669V50.46C17.9698 52.555 18.4521 54.6209 19.3759 56.496L22.9607 63.75C23.5759 64.9994 23.8972 66.3757 23.8996 67.7715V75H50.5969V69.4125C50.5979 67.9069 50.9711 66.4255 51.6826 65.103L52.396 63.7815L55.0005 65.2185L54.2871 66.54C53.8129 67.4215 53.5641 68.409 53.5633 69.4125V76.5C53.5633 76.8978 53.407 77.2794 53.1289 77.5607C52.8507 77.842 52.4735 78 52.0801 78Z" fill="#363636"/>
<path d="M17.8958 49H15.0005V12.0215C15.0005 10.4245 15.6106 8.89293 16.6965 7.76367C17.7825 6.63441 19.2554 6 20.7911 6C22.3269 6 23.7998 6.63441 24.8857 7.76367C25.9717 8.89293 26.5818 10.4245 26.5818 12.0215V20.9033L28.0005 28.2797L25.1631 28.8698L23.7154 21.3429C23.6961 21.2479 23.6864 21.151 23.6865 21.0539V12.0215C23.6865 11.223 23.3814 10.4572 22.8384 9.89261C22.2955 9.32798 21.559 9.01077 20.7911 9.01077C20.0232 9.01077 19.2868 9.32798 18.7438 9.89261C18.2009 10.4572 17.8958 11.223 17.8958 12.0215V49Z" fill="#363636"/>
<path d="M56.0005 84H53.0774V78H20.9236V84H18.0005V76.5C18.0005 76.1022 18.1545 75.7206 18.4286 75.4393C18.7027 75.158 19.0744 75 19.462 75H54.5389C54.9266 75 55.2983 75.158 55.5724 75.4393C55.8465 75.7206 56.0005 76.1022 56.0005 76.5V84Z" fill="#363636"/>
<path d="M54.5389 96H19.462C19.0744 96 18.7027 95.842 18.4286 95.5607C18.1545 95.2794 18.0005 94.8978 18.0005 94.5V87H20.9236V93H53.0774V87H56.0005V94.5C56.0005 94.8978 55.8465 95.2794 55.5724 95.5607C55.2983 95.842 54.9266 96 54.5389 96Z" fill="#363636"/>
<path d="M32.2872 72H30.5136C24.2485 72 22.3227 70.3545 22.0005 70.0244L23.0551 68.9442L24.0471 67.8029C24.0605 67.8151 25.5089 68.9442 30.5136 68.9442H32.2872C33.882 68.9467 35.4625 68.6355 36.9427 68.0275L41.8937 66L43.0005 68.8388L38.0496 70.8663C36.2172 71.6181 34.2611 72.0029 32.2872 72Z" fill="#363636"/>
<path d="M62.0484 92L61.0005 89.144L69.2358 86L61.002 82.856L62.0499 80L74.0264 84.572C74.3124 84.6806 74.559 84.8755 74.7331 85.1307C74.9072 85.386 75.0005 85.6893 75.0005 86C75.0005 86.3107 74.9072 86.614 74.7331 86.8693C74.559 87.1245 74.3124 87.3194 74.0264 87.428L62.0484 92Z" fill="#D91611"/>
<path d="M12.9524 92L0.974685 87.428C0.688648 87.3194 0.442042 87.1245 0.267922 86.8693C0.093802 86.614 0.000488281 86.3107 0.000488281 86C0.000488281 85.6893 0.093802 85.386 0.267922 85.1307C0.442042 84.8755 0.688648 84.6806 0.974685 84.572L12.9524 80L14.0005 82.856L5.76429 86L13.999 89.144L12.9524 92Z" fill="#D91611"/>
<path d="M38.0005 92C36.8138 92 35.6538 91.6481 34.6671 90.9888C33.6804 90.3295 32.9113 89.3925 32.4572 88.2961C32.0031 87.1997 31.8843 85.9933 32.1158 84.8295C32.3473 83.6656 32.9187 82.5965 33.7579 81.7574C34.597 80.9182 35.6661 80.3468 36.8299 80.1153C37.9938 79.8838 39.2002 80.0026 40.2966 80.4567C41.3929 80.9109 42.33 81.6799 42.9893 82.6666C43.6486 83.6533 44.0005 84.8133 44.0005 86C44.0005 87.5913 43.3683 89.1174 42.2431 90.2426C41.1179 91.3679 39.5918 92 38.0005 92ZM38.0005 83C37.4071 83 36.8271 83.1759 36.3338 83.5056C35.8404 83.8352 35.4559 84.3038 35.2289 84.852C35.0018 85.4001 34.9424 86.0033 35.0581 86.5853C35.1739 87.1672 35.4596 87.7018 35.8792 88.1213C36.2987 88.5409 36.8333 88.8266 37.4152 88.9424C37.9972 89.0581 38.6004 88.9987 39.1485 88.7716C39.6967 88.5446 40.1653 88.1601 40.4949 87.6667C40.8245 87.1734 41.0005 86.5933 41.0005 86C41.0005 85.2044 40.6844 84.4413 40.1218 83.8787C39.5592 83.3161 38.7961 83 38.0005 83Z" fill="#D91611"/>
<path d="M51.0007 92C49.4093 92 47.8832 91.3679 46.7579 90.2426C45.6327 89.1174 45.0005 87.5913 45.0005 86C45.0005 84.4087 45.6327 82.8826 46.7579 81.7574C47.8832 80.6321 49.4093 80 51.0007 80C51.2729 80.0001 51.5399 80.0742 51.7732 80.2145L59.2734 84.7145C59.4952 84.8479 59.6787 85.0363 59.8061 85.2616C59.9335 85.4868 60.0005 85.7412 60.0005 86C60.0005 86.2588 59.9335 86.5132 59.8061 86.7384C59.6787 86.9637 59.4952 87.1521 59.2734 87.2855L51.7732 91.7855C51.5399 91.9258 51.2729 91.9999 51.0007 92ZM50.6242 83.024C49.8999 83.1162 49.2341 83.4692 48.7516 84.0171C48.269 84.5649 48.0028 85.2699 48.0028 86C48.0028 86.7301 48.269 87.4351 48.7516 87.9829C49.2341 88.5308 49.8999 88.8838 50.6242 88.976L55.5848 86L50.6242 83.024Z" fill="#D91611"/>
<path d="M24.0003 92C23.7281 91.9999 23.4611 91.9258 23.2278 91.7855L15.7275 87.2855C15.5058 87.1521 15.3222 86.9637 15.1948 86.7384C15.0674 86.5132 15.0005 86.2588 15.0005 86C15.0005 85.7412 15.0674 85.4868 15.1948 85.2616C15.3222 85.0363 15.5058 84.8479 15.7275 84.7145L23.2278 80.2145C23.4611 80.0742 23.7281 80.0001 24.0003 80C25.5916 80 27.1178 80.6321 28.2431 81.7574C29.3683 82.8826 30.0005 84.4087 30.0005 86C30.0005 87.5913 29.3683 89.1174 28.2431 90.2426C27.1178 91.3679 25.5916 92 24.0003 92ZM19.4162 86L24.3768 88.976C25.1011 88.8838 25.7668 88.5308 26.2494 87.9829C26.732 87.4351 26.9982 86.7301 26.9982 86C26.9982 85.2699 26.732 84.5649 26.2494 84.0171C25.7668 83.4692 25.1011 83.1162 24.3768 83.024L19.4162 86Z" fill="#D91611"/>
<path d="M45.2862 70C43.7202 70 42.2183 69.3679 41.1109 68.2426C40.0035 67.1174 39.3814 65.5913 39.3814 64V56.5C39.3838 54.5116 40.1622 52.6053 41.5459 51.1993C42.9295 49.7933 44.8056 49.0024 46.7624 49C47.1539 49 47.5294 48.842 47.8062 48.5607C48.083 48.2794 48.2386 47.8978 48.2386 47.5V46.4155L44.4507 40H37.9052C36.3392 40 34.8373 39.3679 33.73 38.2426C32.6226 37.1174 32.0005 35.5913 32.0005 34C32.0005 32.4087 32.6226 30.8826 33.73 29.7574C34.8373 28.6321 36.3392 28 37.9052 28H48.2386C48.6301 28.0001 49.0055 28.1582 49.2822 28.4395L61.7029 41.0605C62.1156 41.4772 62.4428 41.9729 62.6655 42.5191C62.8883 43.0652 63.0021 43.6508 63.0005 44.242V49.735C63.0003 50.4883 62.814 51.2294 62.4587 51.8905L57.6259 60.8946C57.2352 61.6226 56.3246 61.8904 55.602 61.4898C54.8931 61.0968 54.6315 60.2071 55.0149 59.493L59.868 50.4535C59.9862 50.2331 60.0482 49.986 60.0481 49.735V44.242C60.0466 43.8445 59.8912 43.4636 59.6156 43.1815L47.6274 31H37.9052C37.1222 31 36.3713 31.3161 35.8176 31.8787C35.2639 32.4413 34.9529 33.2044 34.9529 34C34.9529 34.7957 35.2639 35.5587 35.8176 36.1213C36.3713 36.6839 37.1222 37 37.9052 37H45.2862C45.5409 37 45.7913 37.0671 46.013 37.1946C46.2347 37.322 46.4201 37.5056 46.5513 37.7275L50.9799 45.2275C51.1179 45.4608 51.1909 45.7278 51.191 46V47.5C51.191 48.6935 50.7244 49.8381 49.8939 50.682C49.0633 51.5259 47.9369 52 46.7624 52C45.5879 52 44.4614 52.4741 43.6309 53.318C42.8004 54.1619 42.3338 55.3065 42.3338 56.5V64C42.3338 64.7957 42.6449 65.5587 43.1985 66.1213C43.7522 66.6839 44.5032 67 45.2862 67C50.5326 67 51.4851 66.4735 51.584 66.4135C51.4562 66.7436 51.2005 67.6077 51.2005 68.4231V70H45.2862Z" fill="#D91611"/>
</svg>
