<svg width="96" height="60" viewBox="0 0 96 60" fill="none" xmlns="http://www.w3.org/2000/svg">
<path d="M94.423 47.4627H89.6906V4.7015C89.6906 2.10936 87.5674 0 84.9582 0H11.0428C8.43361 0 6.3104 2.10936 6.3104 4.7015V47.4627H1.578C0.707242 47.4627 0.000488281 48.1649 0.000488281 49.0299V52.1642C0.000488281 56.4833 3.54032 60 7.88776 60H88.1131C92.4607 60 96.0005 56.4833 96.0005 52.1642V49.0299C96.0005 48.1649 95.2937 47.4627 94.423 47.4627ZM9.46528 4.7015C9.46528 3.83642 10.172 3.13428 11.0428 3.13428H84.9583C85.8291 3.13428 86.5358 3.83642 86.5358 4.7015V47.4627H64.0004C63.5809 47.4627 63.1801 47.6289 62.89 47.9204L60.1956 50.5971H35.8116L33.1172 47.9204C32.8207 47.6289 32.4199 47.4627 32.0004 47.4627H9.46528V4.7015ZM92.8456 52.1642C92.8456 54.7564 90.7224 56.8657 88.1132 56.8657H7.88776C5.27859 56.8657 3.15537 54.7564 3.15537 52.1642V50.597H31.3473L34.0384 53.2738C34.3349 53.5653 34.7357 53.7314 35.1553 53.7314H60.8454C61.265 53.7314 61.6657 53.5653 61.9591 53.2738L64.6535 50.597H92.8455L92.8456 52.1642Z" fill="#363636"/>
<rect x="32.0005" y="26" width="7" height="15" fill="#D91611"/>
<rect x="46.0005" y="16" width="7" height="24" fill="#D91611"/>
<rect x="60.0005" y="8" width="7" height="32" fill="#D91611"/>
</svg>
