<svg width="147" height="171" viewBox="0 0 147 171" fill="none" xmlns="http://www.w3.org/2000/svg">
<mask id="path-1-inside-1_113_257" fill="white">
<path d="M0.507808 145.733C12.4468 157.671 27.658 165.802 44.2178 169.096C60.7777 172.39 77.9424 170.699 93.5415 164.238C109.141 157.777 122.473 146.835 131.854 132.796C141.234 118.757 146.241 102.252 146.241 85.3679C146.241 68.4836 141.234 51.9785 131.854 37.9398C122.473 23.901 109.14 12.9591 93.5415 6.49778C77.9424 0.0364482 60.7777 -1.65413 44.2178 1.63984C27.658 4.9338 12.4468 13.0644 0.507798 25.0033L36.7266 61.2221C41.5021 56.4465 47.5866 53.1943 54.2106 51.8767C60.8345 50.5591 67.7004 51.2353 73.94 53.8199C80.1796 56.4044 85.5127 60.7811 89.2649 66.3967C93.0171 72.0122 95.0198 78.6142 95.0198 85.3679C95.0198 92.1216 93.0171 98.7237 89.2649 104.339C85.5127 109.955 80.1796 114.331 73.94 116.916C67.7004 119.501 60.8345 120.177 54.2106 118.859C47.5866 117.542 41.5022 114.289 36.7266 109.514L0.507808 145.733Z"/>
</mask>
<path d="M0.507808 145.733C12.4468 157.671 27.658 165.802 44.2178 169.096C60.7777 172.39 77.9424 170.699 93.5415 164.238C109.141 157.777 122.473 146.835 131.854 132.796C141.234 118.757 146.241 102.252 146.241 85.3679C146.241 68.4836 141.234 51.9785 131.854 37.9398C122.473 23.901 109.14 12.9591 93.5415 6.49778C77.9424 0.0364482 60.7777 -1.65413 44.2178 1.63984C27.658 4.9338 12.4468 13.0644 0.507798 25.0033L36.7266 61.2221C41.5021 56.4465 47.5866 53.1943 54.2106 51.8767C60.8345 50.5591 67.7004 51.2353 73.94 53.8199C80.1796 56.4044 85.5127 60.7811 89.2649 66.3967C93.0171 72.0122 95.0198 78.6142 95.0198 85.3679C95.0198 92.1216 93.0171 98.7237 89.2649 104.339C85.5127 109.955 80.1796 114.331 73.94 116.916C67.7004 119.501 60.8345 120.177 54.2106 118.859C47.5866 117.542 41.5022 114.289 36.7266 109.514L0.507808 145.733Z" stroke="#B93E3B" stroke-width="148" mask="url(#path-1-inside-1_113_257)"/>
<path d="M0.507808 145.733C12.4468 157.671 27.658 165.802 44.2178 169.096C60.7777 172.39 77.9424 170.699 93.5415 164.238C109.141 157.777 122.473 146.835 131.854 132.796C141.234 118.757 146.241 102.252 146.241 85.3679C146.241 68.4836 141.234 51.9785 131.854 37.9398C122.473 23.901 109.14 12.9591 93.5415 6.49778C77.9424 0.0364482 60.7777 -1.65413 44.2178 1.63984C27.658 4.9338 12.4468 13.0644 0.507798 25.0033L36.7266 61.2221C41.5021 56.4465 47.5866 53.1943 54.2106 51.8767C60.8345 50.5591 67.7004 51.2353 73.94 53.8199C80.1796 56.4044 85.5127 60.7811 89.2649 66.3967C93.0171 72.0122 95.0198 78.6142 95.0198 85.3679C95.0198 92.1216 93.0171 98.7237 89.2649 104.339C85.5127 109.955 80.1796 114.331 73.94 116.916C67.7004 119.501 60.8345 120.177 54.2106 118.859C47.5866 117.542 41.5022 114.289 36.7266 109.514L0.507808 145.733Z" stroke="url(#paint0_linear_113_257)" stroke-width="148" mask="url(#path-1-inside-1_113_257)"/>
<defs>
<linearGradient id="paint0_linear_113_257" x1="80.404" y1="225.628" x2="-119.316" y2="25.9087" gradientUnits="userSpaceOnUse">
<stop stop-color="#7C090C"/>
<stop offset="1" stop-color="#FF302B"/>
</linearGradient>
</defs>
</svg>
