<svg width="20" height="21" viewBox="0 0 20 21" fill="none" xmlns="http://www.w3.org/2000/svg">
<g clip-path="url(#clip0_206_234)">
<path d="M10 20.4458C15.5228 20.4458 20 15.9686 20 10.4458C20 4.92295 15.5228 0.445801 10 0.445801C4.47715 0.445801 0 4.92295 0 10.4458C0 15.9686 4.47715 20.4458 10 20.4458Z" fill="#54A0D7"/>
<path d="M4.57556 10.2291L14.2172 6.51162C14.6647 6.34996 15.0556 6.62079 14.9106 7.29746L14.9114 7.29662L13.2697 15.0308C13.1481 15.5791 12.8222 15.7125 12.3664 15.4541L9.8664 13.6116L8.66056 14.7733C8.52723 14.9066 8.41473 15.0191 8.1564 15.0191L8.3339 12.475L12.9672 8.28912C13.1689 8.11162 12.9222 8.01162 12.6564 8.18829L6.93056 11.7933L4.46223 11.0233C3.9264 10.8533 3.91473 10.4875 4.57556 10.2291Z" fill="white"/>
</g>
<defs>
<clipPath id="clip0_206_234">
<rect width="20" height="20" fill="white" transform="translate(0 0.445801)"/>
</clipPath>
</defs>
</svg>
