<svg width="18" height="18" viewBox="0 0 18 18" fill="none" xmlns="http://www.w3.org/2000/svg">
<path d="M14.9998 6.93768C15.0209 4.55387 12.9115 2.36857 10.2976 2.06638C10.2456 2.06043 10.1889 2.05142 10.129 2.04184C9.99956 2.0212 9.86575 2 9.73074 2C9.19502 2 9.0518 2.3622 9.0141 2.57823C8.97742 2.78826 9.01242 2.96464 9.11785 3.10271C9.29527 3.33489 9.60743 3.37611 9.85817 3.40916C9.93166 3.41894 10.001 3.42802 10.0591 3.44057C12.4076 3.94566 13.1984 4.73973 13.5848 6.98091C13.5943 7.03566 13.5985 7.10316 13.6031 7.17472C13.6199 7.44264 13.655 8 14.2776 8H14.2777C14.3296 8 14.3852 7.99571 14.4432 7.98719C15.023 7.90238 15.0048 7.3929 14.9961 7.1481C14.9936 7.07915 14.9913 7.01393 14.9974 6.97057C14.999 6.95964 14.9998 6.94864 14.9998 6.93768Z" fill="#A763EB"/>
<path d="M9.89445 1.41605C9.96737 1.42111 10.0364 1.42596 10.0939 1.43445C14.1374 2.03372 15.9969 3.87993 16.5122 7.80708C16.5209 7.87385 16.5223 7.95525 16.5238 8.04147C16.5289 8.34828 16.5395 8.98658 17.2508 8.99979L17.2729 9C17.4959 9 17.6734 8.93517 17.8003 8.80718C18.0217 8.58399 18.0063 8.25242 17.9938 7.98593C17.9908 7.92055 17.9879 7.85897 17.9886 7.80507C18.04 3.78861 14.4324 0.146507 10.2684 0.0110937C10.2511 0.010539 10.2347 0.0114404 10.218 0.0136938C10.2098 0.0148379 10.1946 0.0162939 10.1687 0.0162939C10.1272 0.0162939 10.0761 0.0128271 10.0219 0.009291C9.9564 0.00495751 9.88215 0 9.80689 0C9.14375 0 9.0177 0.454219 9.00158 0.724976C8.96439 1.35077 9.59256 1.39479 9.89445 1.41605Z" fill="#A763EB"/>
<path d="M15.8826 13.0942C15.7986 13.0304 15.7117 12.9644 15.6304 12.8993C15.199 12.5542 14.7401 12.2361 14.2962 11.9285C14.2041 11.8647 14.1119 11.8009 14.0201 11.7369C13.4516 11.3399 12.9404 11.147 12.4574 11.147C11.807 11.147 11.2398 11.5042 10.7718 12.2086C10.5644 12.521 10.3128 12.6728 10.0027 12.6728C9.81942 12.6728 9.61106 12.6208 9.38362 12.5182C7.54833 11.6909 6.23783 10.4226 5.48845 8.7484C5.12619 7.93922 5.24364 7.4103 5.88119 6.97981C6.24324 6.73557 6.91714 6.28087 6.86941 5.41015C6.81534 4.42136 4.6204 1.44615 3.69557 1.10826C3.30402 0.965139 2.89262 0.963812 2.47059 1.10494C1.4074 1.4602 0.644452 2.08409 0.264016 2.90903C-0.103624 3.70617 -0.0870316 4.64212 0.312036 5.61575C1.46565 8.43075 3.08755 10.8851 5.13287 12.9104C7.13489 14.893 9.59552 16.517 12.4464 17.7372C12.7033 17.8471 12.9729 17.907 13.1697 17.9507C13.2367 17.9657 13.2946 17.9785 13.3369 17.99C13.3601 17.9963 13.384 17.9997 13.408 17.9999L13.4305 18C13.4306 18 13.4305 18 13.4306 18C14.7714 18 16.3815 16.7821 16.8759 15.3937C17.3091 14.1779 16.5182 13.577 15.8826 13.0942Z" fill="#A763EB"/>
<path d="M11.0213 5.00052C10.7686 5.00673 10.2424 5.01941 10.0579 5.54006C9.97151 5.78335 9.98184 5.99459 10.0886 6.16792C10.2453 6.42223 10.5456 6.50016 10.8187 6.54293C11.8092 6.69737 12.3178 7.22954 12.4195 8.21759C12.4668 8.67829 12.7861 9 13.196 9H13.1961C13.2264 9 13.2574 8.99827 13.2882 8.99462C13.7812 8.93764 14.0203 8.58564 13.9987 7.94857C14.0066 7.28367 13.6484 6.52882 13.0394 5.92756C12.4281 5.32446 11.6914 4.9848 11.0213 5.00052Z" fill="#A763EB"/>
</svg>
