<svg xmlns="http://www.w3.org/2000/svg" width="22" height="22" viewBox="0 0 22 22" fill="none">
<path d="M3.64446 15.4806L6.02275 13.0967C6.49646 12.6238 7.28093 12.6382 7.77115 13.1297L8.96934 14.3303C9.04504 14.2885 9.12339 14.2448 9.20578 14.1985C9.96242 13.7783 10.998 13.2024 12.0878 12.1094C13.1808 11.014 13.7559 9.97448 14.1764 9.21564C14.2208 9.13524 14.2633 9.05773 14.3053 8.98412L13.5012 8.17933L13.1058 7.78259C12.6148 7.29038 12.6013 6.50435 13.0739 6.0301L15.4522 3.64588C15.9248 3.1723 16.7096 3.18666 17.2006 3.67888L17.8709 4.35454L17.8526 4.37276C18.0773 4.66019 18.2651 4.99171 18.4049 5.3492C18.5337 5.68949 18.6139 6.01422 18.6506 6.33961C18.9647 8.94895 17.775 11.3337 14.5463 14.5697C10.0833 19.0426 6.48664 18.7047 6.33148 18.6882C5.99355 18.6477 5.66969 18.5668 5.34056 18.4387C4.98697 18.3002 4.65643 18.1122 4.36983 17.8875L4.35518 17.9005L3.67614 17.2341C3.18619 16.742 3.17207 15.9557 3.64446 15.4806Z" fill="white"/>
</svg>