<svg width="562" height="80" viewBox="0 0 562 80" fill="none" xmlns="http://www.w3.org/2000/svg">
<path d="M1.71751 38.2594C1.70074 40.4741 3.28536 42.8876 6.92902 45.4359C10.5335 47.9569 15.9234 50.4427 22.9666 52.8471C37.0398 57.6512 57.4767 62.0517 82.8072 65.8146C133.453 73.338 203.494 78.2881 280.918 78.8742C358.342 79.4604 428.45 75.5713 479.204 68.8156C504.588 65.4367 525.09 61.3461 539.234 56.7556C546.313 54.4582 551.74 52.0542 555.382 49.5881C559.064 47.0952 560.685 44.706 560.701 42.4913C560.718 40.2766 559.134 37.8631 555.49 35.3148C551.885 32.7938 546.496 30.308 539.452 27.9036C525.379 23.0995 504.942 18.699 479.612 14.9361C428.966 7.41272 358.925 2.46261 281.501 1.87645C204.077 1.2903 133.969 5.17939 83.2151 11.9351C57.8306 15.314 37.3293 19.4046 23.1851 23.9951C16.1062 26.2925 10.6793 28.6965 7.03707 31.1626C3.35525 33.6555 1.73428 36.0447 1.71751 38.2594Z" stroke="#D91611" stroke-width="2"/>
</svg>
