<svg width="301" height="264" viewBox="0 0 301 264" fill="none" xmlns="http://www.w3.org/2000/svg">
<mask id="path-1-inside-1_96_358" fill="white">
<path d="M266.241 241.156C285.009 218.354 296.551 190.609 299.409 161.429C302.268 132.249 296.313 102.944 282.299 77.2211C268.285 51.498 246.84 30.5114 220.677 16.9154C194.514 3.31937 164.807 -2.27549 135.314 0.838335C105.82 3.95216 77.8645 15.6348 54.9818 34.4089C32.0991 53.183 15.3172 78.2054 6.75814 106.312C-1.80091 134.418 -1.75263 164.346 6.89688 192.311C15.5464 220.277 32.4086 245.023 55.3513 263.421L101.515 207.334C89.7339 197.887 81.0751 185.179 76.6335 170.819C72.192 156.459 72.1672 141.091 76.5623 126.658C80.9574 112.226 89.5749 99.3766 101.325 89.736C113.076 80.0955 127.431 74.0964 142.576 72.4975C157.721 70.8985 172.975 73.7715 186.41 80.7531C199.845 87.7347 210.857 98.5113 218.053 111.72C225.249 124.929 228.307 139.977 226.839 154.961C225.372 169.945 219.444 184.192 209.807 195.901L266.241 241.156Z"/>
</mask>
<path d="M266.241 241.156C285.009 218.354 296.551 190.609 299.409 161.429C302.268 132.249 296.313 102.944 282.299 77.2211C268.285 51.498 246.84 30.5114 220.677 16.9154C194.514 3.31937 164.807 -2.27549 135.314 0.838335C105.82 3.95216 77.8645 15.6348 54.9818 34.4089C32.0991 53.183 15.3172 78.2054 6.75814 106.312C-1.80091 134.418 -1.75263 164.346 6.89688 192.311C15.5464 220.277 32.4086 245.023 55.3513 263.421L101.515 207.334C89.7339 197.887 81.0751 185.179 76.6335 170.819C72.192 156.459 72.1672 141.091 76.5623 126.658C80.9574 112.226 89.5749 99.3766 101.325 89.736C113.076 80.0955 127.431 74.0964 142.576 72.4975C157.721 70.8985 172.975 73.7715 186.41 80.7531C199.845 87.7347 210.857 98.5113 218.053 111.72C225.249 124.929 228.307 139.977 226.839 154.961C225.372 169.945 219.444 184.192 209.807 195.901L266.241 241.156Z" stroke="#B93E3B" stroke-width="213.472" mask="url(#path-1-inside-1_96_358)"/>
<path d="M266.241 241.156C285.009 218.354 296.551 190.609 299.409 161.429C302.268 132.249 296.313 102.944 282.299 77.2211C268.285 51.498 246.84 30.5114 220.677 16.9154C194.514 3.31937 164.807 -2.27549 135.314 0.838335C105.82 3.95216 77.8645 15.6348 54.9818 34.4089C32.0991 53.183 15.3172 78.2054 6.75814 106.312C-1.80091 134.418 -1.75263 164.346 6.89688 192.311C15.5464 220.277 32.4086 245.023 55.3513 263.421L101.515 207.334C89.7339 197.887 81.0751 185.179 76.6335 170.819C72.192 156.459 72.1672 141.091 76.5623 126.658C80.9574 112.226 89.5749 99.3766 101.325 89.736C113.076 80.0955 127.431 74.0964 142.576 72.4975C157.721 70.8985 172.975 73.7715 186.41 80.7531C199.845 87.7347 210.857 98.5113 218.053 111.72C225.249 124.929 228.307 139.977 226.839 154.961C225.372 169.945 219.444 184.192 209.807 195.901L266.241 241.156Z" stroke="url(#paint0_linear_96_358)" stroke-width="213.472" mask="url(#path-1-inside-1_96_358)"/>
<defs>
<linearGradient id="paint0_linear_96_358" x1="-75.8016" y1="-115.912" x2="576.644" y2="14.9278" gradientUnits="userSpaceOnUse">
<stop stop-color="#422139"/>
<stop offset="1" stop-color="#D91611"/>
</linearGradient>
</defs>
</svg>
